<svg xmlns="http://www.w3.org/2000/svg" viewBox="0 0 500 500"><g id="freepik--background-complete--inject-215"><path d="M406.56,144.75c-37.65,0-37.71,53.53,0,53.53S444.26,144.75,406.56,144.75Z" style="fill:#ebebeb"></path><path d="M429.44,176.53c-2,9.21-9.64,17.2-22.89,17.2-31.29,0-31.24-44.43,0-44.43h.61c-29.39.54-29.25,42.61.58,42.61C419.91,191.92,427.16,184.88,429.44,176.53Z" style="fill:#dbdbdb"></path><path d="M406.78,155.16a1,1,0,0,1,1,.89v1.49a14,14,0,0,1,7.24,2.61c.37.26.57.49.57.86a1,1,0,0,1-1.05.93,1.08,1.08,0,0,1-.74-.26,12.15,12.15,0,0,0-6.11-2.42v10.43c6.19,1.19,8.8,3.32,8.8,7,0,4-3.62,6.74-8.71,6.89v2.91a1,1,0,0,1-2,0v-3a16,16,0,0,1-9.16-3.61.94.94,0,0,1-.45-.78,1.06,1.06,0,0,1,1.75-.67,13.78,13.78,0,0,0,7.94,3.39V171.22c-6.11-1.23-8.63-3.28-8.63-7s3.58-6.63,8.55-6.74v-1.42A1,1,0,0,1,406.78,155.16Zm-.9,14.16V159.15c-3.95.07-6.55,2.23-6.55,4.91S400.63,168.16,405.88,169.32Zm1.79,2.27v10.28c4.08-.07,6.72-2.23,6.72-5.06C414.39,174.24,413,172.67,407.67,171.59Z" style="fill:#dbdbdb"></path><path d="M93.45,60.08c-37.64,0-37.71,53.52,0,53.52S131.15,60.08,93.45,60.08Z" style="fill:#ebebeb"></path><path d="M116.33,91.86c-2,9.21-9.64,17.19-22.89,17.19-31.28,0-31.24-44.42,0-44.42h.61c-29.39.54-29.25,42.61.58,42.61C106.8,107.25,114.05,100.21,116.33,91.86Z" style="fill:#dbdbdb"></path><path d="M93.67,70.49a1,1,0,0,1,1,.89v1.49a14,14,0,0,1,7.25,2.61c.36.26.57.48.57.86a1,1,0,0,1-1.06.93,1.08,1.08,0,0,1-.74-.26,12.06,12.06,0,0,0-6.1-2.42V85c6.19,1.19,8.79,3.31,8.79,7,0,4-3.62,6.74-8.71,6.89v2.91a1,1,0,0,1-2,0v-3a16,16,0,0,1-9.16-3.61,1,1,0,0,1-.45-.78,1,1,0,0,1,1-.94,1.07,1.07,0,0,1,.73.26,13.73,13.73,0,0,0,7.94,3.4V86.55c-6.1-1.23-8.63-3.28-8.63-7s3.58-6.63,8.55-6.74V71.38A1,1,0,0,1,93.67,70.49Zm-.9,14.16V74.47c-4,.08-6.55,2.24-6.55,4.92S87.52,83.49,92.77,84.65Zm1.8,2.27V97.2c4.07-.07,6.72-2.23,6.72-5.06C101.29,89.56,99.86,88,94.57,86.92Z" style="fill:#dbdbdb"></path><path d="M323.29,225.9c-33.89,6.08-24.94,56.29,9,50.2S357.24,219.81,323.29,225.9Z" style="fill:#dbdbdb"></path><path d="M326.48,225.33c-32.3,5.79-23.35,56,9,50.2S358.83,219.52,326.48,225.33Z" style="fill:#ebebeb"></path><path d="M351.46,251.61c-.17,8.94-5.38,17.61-16.75,19.65-26.84,4.82-34.28-36.85-7.47-41.66.17,0,.35-.07.53-.09-25.14,5-17.94,44.47,7.66,39.88C345.87,267.51,350.91,259.79,351.46,251.61Z" style="fill:#dbdbdb"></path><path d="M332.92,235a.87.87,0,0,1,.75.95l-.17,1.41a11.54,11.54,0,0,1,6,3.21,1,1,0,0,1,.4.87.91.91,0,0,1-1,.77.9.9,0,0,1-.61-.32,10.06,10.06,0,0,0-5-2.92l-1.16,9.88c5.23,1.75,7.25,4,6.84,7.48-.44,3.74-3.89,6-8.31,5.64l-.32,2.75a.86.86,0,1,1-1.7-.2l.33-2.78a13.31,13.31,0,0,1-7.53-4.36.92.92,0,0,1-.3-.78.93.93,0,0,1,1-.78.9.9,0,0,1,.61.32,11.47,11.47,0,0,0,6.5,4l1.18-10.05c-5.15-1.79-7.11-4-6.7-7.51s3.84-5.91,8.16-5.51l.16-1.34A.86.86,0,0,1,332.92,235Zm-2.35,13.31,1.13-9.62c-3.43-.34-5.92,1.44-6.22,4S326.15,246.71,330.57,248.34Zm1.3,2.33-1.15,9.74c3.54.34,6.07-1.44,6.39-4.12C337.39,253.86,336.33,252.24,331.87,250.67Z" style="fill:#dbdbdb"></path><path d="M200.37,303.49c0,47.58-27,68.76-27,68.76H80.18s-27-21.18-27-68.76c0-35.64,27.93-68.76,27.93-68.76h91.3S200.37,267.85,200.37,303.49Z" style="fill:#ebebeb"></path><path d="M102.17,233.09a114.92,114.92,0,0,0-7.86,17,152.63,152.63,0,0,0-9.73,54.82c0,3.11.16,6.21.29,9.32.29,3.09.48,6.2.95,9.27s.93,6.15,1.47,9.21c.25,1.54.66,3,1,4.57s.62,3.05,1,4.54a187.74,187.74,0,0,0,12.87,35.08c-1.44-2.77-3-5.52-4.29-8.34s-2.71-5.66-3.81-8.59l-1.73-4.38c-.56-1.46-1-3-1.55-4.44-1.07-2.95-1.9-6-2.78-9a137.74,137.74,0,0,1-3.76-18.45c-.5-3.1-.72-6.24-1-9.37-.16-3.14-.4-6.27-.38-9.42a143.9,143.9,0,0,1,4.7-37.3C90.79,255.48,95.39,243.63,102.17,233.09Z" style="fill:#dbdbdb"></path><path d="M151.41,233.09c6.78,10.54,11.38,22.39,14.63,34.5a143.9,143.9,0,0,1,4.7,37.3c0,3.15-.22,6.28-.38,9.42-.31,3.13-.53,6.27-1,9.37a137.74,137.74,0,0,1-3.76,18.45c-.88,3-1.71,6-2.78,9-.52,1.48-1,3-1.55,4.44l-1.73,4.38c-1.1,2.93-2.55,5.72-3.81,8.59s-2.85,5.57-4.29,8.34a187.74,187.74,0,0,0,12.87-35.08c.42-1.49.7-3,1-4.54s.72-3,1-4.57c.54-3.06,1.13-6.12,1.47-9.21s.66-6.18,1-9.27c.13-3.11.34-6.21.29-9.32a148.61,148.61,0,0,0-4.25-37,147.05,147.05,0,0,0-5.48-17.85A114.92,114.92,0,0,0,151.41,233.09Z" style="fill:#dbdbdb"></path><path d="M126.79,374.08c-.36-11.61-.53-23.22-.67-34.84s-.13-23.22-.2-34.84l.2-34.83.24-17.42c.15-5.81.23-11.62.43-17.42.2,5.8.28,11.61.43,17.42l.24,17.42.2,34.83c-.07,11.62-.06,23.23-.2,34.84S127.15,362.47,126.79,374.08Z" style="fill:#dbdbdb"></path><rect x="54.95" y="268.58" width="143.69" height="7.22" style="fill:#c7c7c7"></rect><rect x="54.95" y="334.16" width="143.69" height="7.22" style="fill:#c7c7c7"></rect><polygon points="173.97 384.19 79.61 384.19 74.4 369.56 179.18 369.56 173.97 384.19" style="fill:#c7c7c7"></polygon><polygon points="79.61 225.77 173.97 225.77 179.18 240.41 74.4 240.41 79.61 225.77" style="fill:#c7c7c7"></polygon></g><g id="freepik--Shadow--inject-215"><ellipse cx="250" cy="444.33" rx="188.63" ry="22.46" style="fill:#ebebeb"></ellipse></g><g id="freepik--Plants--inject-215"><path d="M104.05,352.24c-4.64.16-9.81.43-13.65-2.58-3.55-2.78-6.72-6.92-6.25-11.67.14-1.36.45-2.19,1.9-1.62,2.22.89,3.92,3.33,5.45,5a47,47,0,0,0,6.44,6.1c1.65,1.27,3.43,2.36,5.11,3.59.22.15.43.31.63.47l.24.18h.14a.29.29,0,0,1,.19.1.19.19,0,0,1,0,.08A.25.25,0,0,1,104.05,352.24Z" style="fill:#92E3A9"></path><path d="M104.28,351.93c-4.08-.07-8.48.12-11.74-2.65a19.07,19.07,0,0,1-3.79-4.6c-.47-.77-1.88-3.06-1.3-4,1.06-1.65,5.92,5.07,6.6,5.71a19.89,19.89,0,0,0,9,4.68c.22.15.43.31.63.47a22.25,22.25,0,0,1-6.76-2.6c-2.9-1.73-4.51-4.28-6.77-6.66-.49-.52-2-2.25-2.52-1.17-.37.71,1,2.95,1.29,3.43a19.08,19.08,0,0,0,3.58,4.37c3.25,2.84,7.64,2.74,11.75,2.91A.19.19,0,0,1,104.28,351.93Z" style="fill:#fff"></path><path d="M106.61,355.07c0,.18-.07.35-.11.53v0a.14.14,0,0,1-.08.1.19.19,0,0,1-.24-.1.14.14,0,0,1,0-.11l0-.07a1,1,0,0,1,0-.16h0a.13.13,0,0,1,0-.06c-.83-3.07-1.15-6.26-2-9.33s-1.86-5.81-2.45-8.8c-.38-1.88-1.69-11.35,2.48-10.17,1.85.52,3.12,3.2,3.82,4.8a19.4,19.4,0,0,1,1.53,6.8C109.9,344.28,107.78,349.53,106.61,355.07Z" style="fill:#92E3A9"></path><path d="M108,343.28a22.74,22.74,0,0,0-.67-6.42c-.19-.73-1.09-4.21-2.27-4.12-.77.05-.9,1.55-1,2.05-.27,2.1.42,4.25.83,6.3a86.86,86.86,0,0,1,1.53,12.65c0,.26-.08.54-.11.8s-.06.45-.09.67,0,.15,0,.23l0,.18a.2.2,0,0,0,.25.09c0-.17,0-.34.07-.51,0,.14,0,.28,0,.42h0l.09-.44s0-.07,0-.1c0-.24,0-.48,0-.71A96.29,96.29,0,0,0,108,343.28Zm-1.41,9.56c-.12-2.48-.36-5-.71-7.42-.28-2-.66-3.94-1.08-5.9a21.23,21.23,0,0,1-.53-3.35c0-.87.09-4.06,1.74-2.08,1.18,1.44,1.47,4.49,1.61,6.26a32,32,0,0,1-.11,5.87C107.24,348.44,106.87,350.64,106.54,352.84Z" style="fill:#fff"></path><path d="M109.11,367.8h0l-.17,0c-4.25-.22-9.9.18-13.43-2.62-2.6-2.08-5.16-6.17-4.34-9.65.94-3.92,6.23.78,7.63,1.92a126.2,126.2,0,0,1,10.39,10.11l.06.08h0C109.29,367.74,109.2,367.78,109.11,367.8Z" style="fill:#92E3A9"></path><path d="M109.26,367.67l-.74-.46c-2.79-1.75-5.51-3.63-8.12-5.63-.66-.51-5.43-4.76-6.15-3.24-.43.92,1.14,2.79,1.64,3.42a13.05,13.05,0,0,0,3.23,2.88c2.82,1.76,6.25,2.14,9.45,3a3.9,3.9,0,0,1,.46.12l.08.05h0C109.21,367.78,109.29,367.74,109.26,367.67Zm-8.4-2.41a13.15,13.15,0,0,1-3.66-2.48c-.71-.67-3.22-3.21-2.55-4.25.35-.56.65-.26,1.32.07a8.08,8.08,0,0,1,.9.52,25.18,25.18,0,0,1,2,1.54c1.17.93,2.34,1.83,3.55,2.71,2,1.44,4,2.79,6.07,4.07C106,366.66,103.29,366.35,100.86,365.26Z" style="fill:#fff"></path><path d="M116.86,359.06a25.14,25.14,0,0,1-7.27,12.7s0,0-.08,0a.19.19,0,0,1-.22-.08.17.17,0,0,1,0-.24l.22-.22c.7-5.76,1.48-11.5,2.07-17.28.14-1.36,1.21-10,3.87-8.63,1.65.88,1.76,4.43,1.9,6A25.41,25.41,0,0,1,116.86,359.06Z" style="fill:#92E3A9"></path><path d="M115.32,351.33c-.14-.48-.4-1-.94-.64-1,.64-1.44,4.72-1.61,5.85-.72,4.65-1.82,9.13-2.94,13.68-.09.38-.19.77-.28,1.16l-.26.34a.18.18,0,0,0,.22.08l0-.11c.12-.15.24-.31.35-.47h0a29.64,29.64,0,0,0,4.2-8.18,28.57,28.57,0,0,0,1.24-5.7C115.53,355.54,115.86,353.08,115.32,351.33Zm-5.45,19.57-.15.23c0-.15.1-.31.14-.46a83.89,83.89,0,0,0,2.6-10.59c.31-1.82.5-3.65.87-5.46.16-.76.54-2.94,1.17-3.29s.62.49.68,1a12.1,12.1,0,0,1,0,1.33A29.2,29.2,0,0,1,109.87,370.9Z" style="fill:#fff"></path><path d="M110.29,384.19h-.85c0-.74,0-1.49,0-2.23-.1-3-.22-6-.4-9-.1-1.72-.22-3.43-.4-5.12a.88.88,0,0,1,0-.17c0-.14,0-.27,0-.42s0-.29,0-.44a36.7,36.7,0,0,0-2.92-11.08c-.54-1.17-1.13-2.31-1.75-3.45,0-.11-.12-.21-.18-.32a.2.2,0,0,0-.05-.09c0-.11-.12-.22-.18-.34l-.15-.25c-2-3.45-4.2-6.75-6.33-10.07-.61-.95-1.22-1.91-1.82-2.87a1,1,0,0,1-.11-.17c0-.06-.09-.14-.14-.21-2.67-4.22-5.3-8.48-8.08-12.62-.11-.15.14-.29.24-.14,1.88,2.75,3.82,5.46,5.75,8.17l.77,1.09L95,336.57c1,1.44,2,2.88,3,4.34a122.2,122.2,0,0,1,7.81,12.63l.48,1c.1.21.2.42.29.63l.33.72a39.24,39.24,0,0,1,2.85,13.37c0,.31,0,.64.06,1,0,.14,0,.3,0,.45s0,.15,0,.23,0,.21,0,.31h0c0,.07,0,.15,0,.23l0,.83c.12,3,.2,6,.27,9C110.22,382.27,110.26,383.23,110.29,384.19Z" style="fill:#92E3A9"></path><path d="M85,329.61c-2.32-3.13-5.3-9.57-1.88-12.92a3.65,3.65,0,0,1,4.86-.36c1.8,1.31,2.62,3.78,3.2,5.83,1.57,5.46,2.61,11,4.57,16.38,0,0,.16.46.21.58s-.14.16-.18.05-.12-.35-.19-.53C91.86,336,87.72,333.31,85,329.61Z" style="fill:#92E3A9"></path><path d="M95.75,338.56l-.06-.1a39.24,39.24,0,0,1-2.17-4,76.75,76.75,0,0,1-3.34-8.95c-.37-1.17-2-6.91-4.09-4.62-.86,1-.74,2.67-.6,3.85a14.48,14.48,0,0,0,1.78,5.38A26.31,26.31,0,0,0,95,338.13l.41.31.09.14a.47.47,0,0,0,0,.1l0,0a.12.12,0,0,0,.18-.08A.08.08,0,0,0,95.75,338.56Zm-.91-.64a30.54,30.54,0,0,1-6.53-6.56A15.93,15.93,0,0,1,86.18,327a12.6,12.6,0,0,1-.46-2.11,9.61,9.61,0,0,1-.1-1.61c0-1.18.53-2.47,1.23-2.59.86-.16,1.15.35,1.72,1.34a9.11,9.11,0,0,1,.51,1c.38.88.67,1.8,1,2.71.48,1.52,1,3,1.52,4.53.36,1,.76,2,1.19,3a39.89,39.89,0,0,0,2.55,4.95Z" style="fill:#fff"></path><path d="M396.34,338.34c-.38,3.09-1,6.16-1.6,9.21-.35,1.73-.73,3.46-1.08,5.2-.38,1.91-1,3.86-.43,5.78h0a1.23,1.23,0,0,1,0,.26l0,0a.23.23,0,0,1-.4-.07.93.93,0,0,1,0-.13l0,0a8.41,8.41,0,0,1-.67-1.61,40.58,40.58,0,0,1-1.53-4.47,38.67,38.67,0,0,1-1.51-9.55,32.34,32.34,0,0,1,.9-8.6c.55-2.25,1.34-5.6,3-7.32,1.52-1.56,2.79.93,3.23,2.19C397.18,332.11,396.71,335.41,396.34,338.34Z" style="fill:#92E3A9"></path><path d="M393.57,331.77c-1.13,0-1.95,3.64-2.35,5.22a31.33,31.33,0,0,0-1,7.59,40.5,40.5,0,0,0,2.33,13.49l.18.53,0,0s0,.08,0,.12a.23.23,0,0,0,.4.08c-.07-.39-.13-.76-.17-1.14s-.08-.68-.1-1a53.6,53.6,0,0,1,.69-11.17C394.2,341.19,395.07,331.77,393.57,331.77Zm-.81,25.63c.06.51.14,1,.23,1.49-.12-.36-.23-.72-.34-1.08a45,45,0,0,1-2.13-11.9,32.31,32.31,0,0,1,.5-6.8,28.47,28.47,0,0,1,.88-3.56c.15-.49,1-3.54,1.67-3.39.49.11.61,2.86.61,2.91,0,.55,0,1.1,0,1.66,0,1.13-.09,2.27-.18,3.4-.22,2.45-.57,4.9-.87,7.34A42.91,42.91,0,0,0,392.76,357.4Z" style="fill:#fff"></path><path d="M414.12,346.89c-2.07,4-5.56,7.13-9.17,9.79-1.93,1.42-3.93,2.75-5.89,4.12a31.42,31.42,0,0,0-5.09,3.92,2,2,0,0,0-.2.21,8.62,8.62,0,0,0-1,1.45c0,.05-.06.07-.1.07a1.34,1.34,0,0,1-.07.18s-.08,0-.08,0l0-.2v0a.11.11,0,0,1,0-.15.21.21,0,0,1,0-.07l0-.2c.59-4.72,3.89-9.5,6.69-13.14s6.24-6.85,10.56-8.52c1.08-.41,3.55-1.56,4.65-.68S414.56,346,414.12,346.89Z" style="fill:#92E3A9"></path><path d="M410.92,346.9c-1-1-3.89,1.45-4.61,2a48.61,48.61,0,0,0-6,5.83,43.22,43.22,0,0,0-7.66,11.08h0s-.06.09-.1.13l0,.2a.15.15,0,0,0,0,.07.11.11,0,0,0,0,.15l.14-.16c.36-.45.74-.88,1.13-1.3.07-.07.13-.15.2-.21a92.7,92.7,0,0,1,9-7.92,44.85,44.85,0,0,0,6-5.8C409.36,350.45,411.74,347.73,410.92,346.9Zm-.91,2.17c-2.44,4.06-6.68,7-10.28,10a50.44,50.44,0,0,0-6.82,6.48,45.71,45.71,0,0,1,7.08-10,64.11,64.11,0,0,1,4.87-5,26,26,0,0,1,3-2.36,9.38,9.38,0,0,1,2-1.08C411.19,346.7,410.43,348.37,410,349.07Z" style="fill:#fff"></path><path d="M392.06,376a.24.24,0,0,1-.21.12l0,.07a.07.07,0,0,1,0,.1s-.07,0-.1,0c-3.83-3.89-7.52-8.63-9.43-13.79a21.17,21.17,0,0,1-1.37-6.8c0-1.59-.13-4.8,1.23-6,2.74-2.32,5.24,7.56,5.61,9.05.68,2.72,1.12,5.48,1.75,8.21.69,3,1.59,5.92,2.49,8.84A.21.21,0,0,1,392.06,376Z" style="fill:#92E3A9"></path><path d="M392.06,376c-.15-.25-.29-.5-.43-.76A45.82,45.82,0,0,1,386.7,362a43.11,43.11,0,0,0-1.82-6.91c-.23-.55-.91-2.65-1.82-1.59-.46.55-.08,4.55.11,5.57a29.19,29.19,0,0,0,2.22,6.79,48.28,48.28,0,0,0,6.28,10.2,3.2,3.2,0,0,0,.22.27.07.07,0,0,0,0-.1l0-.07A.23.23,0,0,0,392.06,376Zm-5.56-8.49a33.81,33.81,0,0,1-2.63-6.59,26.2,26.2,0,0,1-.58-2.77,14.86,14.86,0,0,1-.18-2.21c0-1.8.16-2.27.46-2.34s.44.16,1,1.24a12.73,12.73,0,0,1,.77,2.2c.28,1.06.52,2.13.75,3.21.47,2.15.91,4.32,1.53,6.42a35.47,35.47,0,0,0,3.81,8.64A54.72,54.72,0,0,1,386.5,367.52Z" style="fill:#fff"></path><path d="M404.35,366.54a13.54,13.54,0,0,1-2.52,5.22c-2.27,3.14-5.18,5.75-7.66,8.72-.37.44-.73.89-1.08,1.36,0,.05-.33.71-.32.65s0-.26.12-.68h0c.4-2.08,1.7-8.36,3.33-11.57a28,28,0,0,1,3.63-5.68c.7-.79,2.36-2.51,3.6-2.14S404.54,365.54,404.35,366.54Z" style="fill:#92E3A9"></path><path d="M402.32,365.27c-1.33-.83-4.76,5.3-5.22,6.09a39.07,39.07,0,0,0-3.91,9.34c-.11.37-.2.73-.29,1.11l-.13.68s.28-.6.32-.65l.18-.24c.29-.38.6-.76.9-1.12,1.49-2.23,3-4.43,4.46-6.7a35.3,35.3,0,0,0,2.77-5.09C401.58,368.29,402.91,365.63,402.32,365.27Zm-.38,1.72c-1.89,5.33-5.75,9.53-8.7,14.26l-.14.23.12-.41a43.73,43.73,0,0,1,3.13-7.79A42.32,42.32,0,0,1,399,368.9a21.56,21.56,0,0,1,1.64-2.28c.27-.3,1.06-1.1,1.32-1S402.06,366.64,401.94,367Z" style="fill:#fff"></path><path d="M417.7,322.55c-3.95,9.08-14.32,13.31-18.82,22.07l0,0c-.14.27-.27.54-.39.82a.19.19,0,0,1-.3,0s-.05-.08,0-.15l.09-.19a47.68,47.68,0,0,1,5.55-15.9c2.28-4.19,5.39-8.1,9.7-10.31,1.06-.55,3.13-1.7,4.32-.79S418.19,321.43,417.7,322.55Z" style="fill:#92E3A9"></path><path d="M414.15,322.94c-.51-.37-1.27.08-1.7.3a15.45,15.45,0,0,0-3,2.05,25.1,25.1,0,0,0-4.78,5.69A51.51,51.51,0,0,0,399,342.41c-.3.91-.57,1.83-.78,2.77,0,.11-.05.23-.08.34a.19.19,0,0,0,.3,0c.11-.27.24-.52.37-.79l0-.07a29.9,29.9,0,0,1,2.82-5.18,70.67,70.67,0,0,1,5.92-7C408.42,331.53,415.89,324.21,414.15,322.94Zm-.64,2.1a34,34,0,0,1-4.68,5.69c-1.64,1.83-3.31,3.65-4.92,5.5a35.2,35.2,0,0,0-3.46,4.73,27.3,27.3,0,0,0-2.16,4.37,37,37,0,0,1,1.55-4.55s0,0,0,0a67.19,67.19,0,0,1,3.84-7.63.47.47,0,0,1,.05-.1,31.28,31.28,0,0,1,4.37-6.1,17.87,17.87,0,0,1,3.11-2.65c1.31-.84,2.44-1.39,2.77-1S413.87,324.42,413.51,325Z" style="fill:#fff"></path><path d="M403.9,333.2c-1.19,2.56-2.32,5.15-3.45,7.76-.53,1.22-1.05,2.44-1.57,3.66l0,.07c-.18.44-.38.88-.57,1.32a81.33,81.33,0,0,0-4.63,12.29,36.74,36.74,0,0,0-.95,6.82c0,.24,0,.48,0,.71h0c0,.13,0,.26,0,.39v.21c-.08,2-.05,4,0,5.94.05,2.71.28,5.4.54,8.08a1.94,1.94,0,0,0,0,.24l0,.37c0,.06,0,.12,0,.18l0,.35c.09.86.16,1.72.24,2.59h-.83a53.2,53.2,0,0,1-1-8,1,1,0,0,1,0-.17c0-.26,0-.52,0-.78s0-.64,0-1c0-.77,0-1.54-.07-2.3a56.79,56.79,0,0,1,1-13.4l.09-.36a.8.8,0,0,1,0-.15l.06-.26.11-.41c.06-.24.14-.48.21-.72l.06-.22a87.84,87.84,0,0,1,4.57-11c.3-.66.6-1.3.91-1.95l.52-1.08.81-1.63s0,0,0,0c1.27-2.55,2.59-5.07,3.84-7.63C403.75,333,404,333.08,403.9,333.2Z" style="fill:#92E3A9"></path></g><g id="freepik--Floor--inject-215"><polygon points="55.66 384.19 104.25 383.95 152.83 383.86 250 383.69 347.17 383.86 395.75 383.95 444.34 384.19 395.75 384.44 347.17 384.53 250 384.69 152.83 384.53 104.25 384.44 55.66 384.19" style="fill:#263238"></polygon></g><g id="freepik--Character--inject-215"><path d="M275.81,279.49c15.68,18.52,32.07,39.13,45.1,44.44,14.49,5.91,47.85-23.44,69.77-43.48,4.36-4-24.23-43.43-28.66-38.94-11.59,11.75-35.16,38.49-38.87,38.29-3-.17-17.43-5.87-33-13.67C265.35,253.72,264.78,266.46,275.81,279.49Z" style="fill:#ffc4c0"></path><path d="M378.2,291.22l-26.36-39a75,75,0,0,1,5.35-8s6.09-11.9,7.4-24c1.13-10.16,1.63-25.36,7.11-25,8,.56,9.67,19.86,10,31,5.2-3.11,10-5.29,13.22-5.55,10.77-.85,20.68,46.78,12.66,54.3C399.82,282.28,384.21,291.14,378.2,291.22Z" style="fill:#ffc4c0"></path><path d="M378.54,225.35c-1.52,5.41,5.72,4.1,5.72,4.1s-10,4.39-9.38,10.58c.59,5.95,9.28,4.06,9.91,3.94-.53.23-9.59,4.51-8.35,10.66,1.28,6.39,9.69,3,10.23,2.78-.43.38-6,5.49-4,9.95,3.44,7.66,18-5,24.74-4.28,0,0,0,11.6.11,11.94,0,0,14.09-11.79,14.59-21a5.87,5.87,0,0,0-4.2-6s5-3.3,4.15-8.17c-.43-2.51-4.81-4.05-4.81-4.05s3.86-2.8,2.86-7.09c-.78-3.43-5.05-4.44-5.05-4.44s2.46-4.42.52-7.66C411.71,210.08,381.8,213.77,378.54,225.35Z" style="fill:#ffc4c0"></path><path d="M414.44,224a.08.08,0,0,0,0-.15c-10.13-1.19-21.63.61-30.58,5.62-.3.16-.16.71.2.59C394.29,226.67,403.63,224.47,414.44,224Z" style="fill:#263238"></path><path d="M417.42,235.73c.12,0,.11-.19,0-.21-10.45-1.17-23.34,1.22-33,8.21-.33.24-.39.79,0,.54C391.21,240.11,407.69,236.1,417.42,235.73Z" style="fill:#263238"></path><path d="M386.16,258.13c9.51-6.35,20.09-9,31.35-10.18.15,0,.11-.22,0-.24-5.67-.93-12.77.56-18.2,2.19a30.24,30.24,0,0,0-13.36,7.9C385.8,258,386,258.26,386.16,258.13Z" style="fill:#263238"></path><path d="M384.09,229.37c-.35.2.33.49,0,.7-1.46.88-9.76,6.92-8.58,10.39.95,2.77,5.34,3.42,7.12,3l4.49-1L383.24,245a19,19,0,0,0-4.52,4.09,6.73,6.73,0,0,0-1.67,5.26,3.86,3.86,0,0,0,3.49,3.36,11.75,11.75,0,0,0,5.73-1.09l5-2.16-4,3.66a17.62,17.62,0,0,0-2.92,3.45,7.31,7.31,0,0,0-1.34,4,3.47,3.47,0,0,0,2,3.08,7.71,7.71,0,0,0,4.3.07,60.63,60.63,0,0,0,8.94-3.08c1.49-.59,3-1.18,4.5-1.69a11.43,11.43,0,0,1,4.72-.83,12.54,12.54,0,0,0-4.56,1.24c-1.46.63-2.9,1.32-4.33,2a51.55,51.55,0,0,1-9,3.62,8.91,8.91,0,0,1-5.15.08,4.92,4.92,0,0,1-3.08-4.43,9,9,0,0,1,1.52-5,19.5,19.5,0,0,1,3.2-3.88l1,1.5a13.45,13.45,0,0,1-6.76,1.36,5.6,5.6,0,0,1-3.42-1.6,6.29,6.29,0,0,1-1.65-3.35,8.48,8.48,0,0,1,2.11-6.65,20.53,20.53,0,0,1,5.05-4.43l.63,1.5c-2.28.45-7.27.26-9.29-3.86C371.91,235.43,382.15,230.19,384.09,229.37Z" style="fill:#263238"></path><path d="M384.26,229.45a11.13,11.13,0,0,1-3.39-.58,2.61,2.61,0,0,1-1.79-2,5.3,5.3,0,0,1,.65-2.94c.49-1,1.07-2.06,1.7-3.12a9.1,9.1,0,0,0-2.76,2.49,5.28,5.28,0,0,0-1.14,3.86,3.83,3.83,0,0,0,1.09,1.95,4,4,0,0,0,1.93.89A6,6,0,0,0,384.26,229.45Z" style="fill:#263238"></path><path d="M353.32,248.74l31.17,45.06s-44.16,33.95-59,32.54-38.31-30.8-49.76-45.87-8.77-25,10.16-16.62,34.84,14.07,37.64,13.72S353.32,248.74,353.32,248.74Z" style="fill:#92E3A9"></path><path d="M339.61,322.49c-5.66,2.61-10.66,4.17-14.09,3.85-14.81-1.41-38.31-30.8-49.76-45.86-5.09-6.7-7.4-12.37-6.71-15.88C289.83,281.1,321.7,308.36,339.61,322.49Z" style="fill:#92E3A9"></path><path d="M371,297c-10.58-17.52-24.36-34.33-26.55-37.43-.1-.15-.33,0-.21.18,2.31,2.93,16,23.85,26.52,37.45C370.83,297.35,371.05,297.16,371,297Z" style="fill:#263238"></path><path d="M339.61,322.49c-5.66,2.61-10.66,4.17-14.09,3.85-14.81-1.41-38.31-30.8-49.76-45.86-5.09-6.7-7.4-12.37-6.71-15.88C289.83,281.1,321.7,308.36,339.61,322.49Z" style="opacity:0.1"></path><path d="M160,361.78l-20.79,62.3s-23.94,16-25.71,18-3.55,8.2-2.89,8.86,78.93,0,81.81,0,6.65-15.74,6.65-15.74L227.5,370Z" style="fill:#ebebeb"></path><polygon points="227.5 369.98 226.67 371.89 159.36 363.71 160.01 361.78 227.5 369.98" style="fill:#92E3A9"></polygon><polygon points="224.54 376.76 222.88 380.59 156.43 372.51 157.72 368.64 224.54 376.76" style="fill:#92E3A9"></polygon><polygon points="220.75 385.45 219.09 389.28 153.49 381.3 154.79 377.43 220.75 385.45" style="fill:#92E3A9"></polygon><polygon points="216.97 394.14 215.3 397.97 150.56 390.1 151.85 386.22 216.97 394.14" style="fill:#92E3A9"></polygon><polygon points="213.18 402.82 211.51 406.65 147.63 398.88 148.92 395.01 213.18 402.82" style="fill:#92E3A9"></polygon><polygon points="209.39 411.51 207.72 415.34 144.69 407.68 145.99 403.81 209.39 411.51" style="fill:#92E3A9"></polygon><polygon points="205.6 420.21 203.93 424.03 141.76 416.47 143.05 412.6 205.6 420.21" style="fill:#92E3A9"></polygon><path d="M201.81,428.9l-1.67,3.82-62.49-7.59,1.57-1.05.9-2.68Z" style="fill:#92E3A9"></path><path d="M201.58,429.42l-2.5,5.74s-3.77,15.74-6.65,15.74-81.14.67-81.8,0,1.1-6.87,2.88-8.87,25.71-17.95,25.71-17.95Z" style="fill:#263238"></path><polygon points="164.13 426.22 139.18 424.08 142.35 415.12 168.77 417.1 164.13 426.22" style="fill:#263238"></polygon><path d="M154.48,432.55l-21.8-1.92,8.69-8.78,20.11,1.65Zm-15.17-4.35,13.8,1.22,2.62-3.38L142.52,425Z" style="fill:#92E3A9"></path><path d="M229.89,369.76l5.62,68.73s-.57,12.71,2.56,12.71h84.27c2.66,0-.22-8.5-2.66-10.27s-22.75-14.19-22.75-14.19l-6.51-61.19Z" style="fill:#ebebeb"></path><polygon points="291.16 372.51 230.34 375.13 230.01 371.14 290.74 368.53 291.16 372.51" style="fill:#92E3A9"></polygon><polygon points="292.12 381.57 231.08 384.2 230.75 380.2 291.7 377.58 292.12 381.57" style="fill:#92E3A9"></polygon><polygon points="293.09 390.61 231.82 393.25 231.49 389.26 292.66 386.63 293.09 390.61" style="fill:#92E3A9"></polygon><polygon points="294.05 399.67 232.56 402.31 232.23 398.32 293.63 395.68 294.05 399.67" style="fill:#92E3A9"></polygon><polygon points="295.01 408.71 233.3 411.37 232.97 407.38 294.59 404.72 295.01 408.71" style="fill:#92E3A9"></polygon><polygon points="295.98 417.76 234.04 420.43 233.71 416.44 295.55 413.78 295.98 417.76" style="fill:#92E3A9"></polygon><path d="M297,426.81l-62.25,2.68-.33-4,62.06-2.67.42,3.92Z" style="fill:#92E3A9"></path><path d="M322.34,451.2H238.07c-3.13,0-2.56-12.71-2.56-12.71l-.74-9.08,62.16-2.67h0c.62.38,20.34,12.43,22.74,14.17S325,451.2,322.34,451.2Z" style="fill:#263238"></path><polygon points="271.71 427.83 296.94 426.75 294.41 418.34 267.72 418.34 271.71 427.83" style="fill:#263238"></polygon><path d="M283,434.76l-6.54-9.38,20.16-.67,8.25,9.19Zm-.92-6.57,2.44,3.51,13.85-.55-3.05-3.39Z" style="fill:#92E3A9"></path><path d="M158.07,334.29H296.79s-.81,9.65-4.59,17.63l5.45,30.59-69,9-2.89-13.07-6,14.1-67.4-16,7.6-24.28A60.4,60.4,0,0,1,158.07,334.29Z" style="fill:#92E3A9"></path><path d="M158.07,334.29H296.79s-.81,9.65-4.59,17.63l5.45,30.59-69,9-2.89-13.07-6,14.1-67.4-16,7.6-24.28A60.4,60.4,0,0,1,158.07,334.29Z" style="opacity:0.30000000000000004"></path><path d="M225.78,378.42c1-2.58,2-5.13,3.06-7.67l.1-.24.32-.05c4.22-.75,8.43-1.75,12.58-2.88s8.24-2.48,12.28-4c2-.73,4-1.56,6-2.37,1-.41,2-.9,2.95-1.32s2-.88,2.91-1.38l2.9-1.43,2.83-1.57,1.43-.78,1.38-.84,2.8-1.68c-.84.7-1.67,1.39-2.52,2.08l-1.28,1-1.34.93-2.71,1.86-2.81,1.68a82.24,82.24,0,0,1-11.84,5.63,99.62,99.62,0,0,1-12.51,3.92,85.26,85.26,0,0,1-12.93,2.13l.41-.29C228.48,373.62,227.17,376,225.78,378.42Z" style="fill:#263238"></path><path d="M276.4,261.47s22.45,34.25,20.39,72.82c0,0-18.12,14.86-52.37,18.18-42.87,4.16-86.35-18.18-86.35-18.18s0-31,32.3-72.82Z" style="fill:#fff"></path><path d="M296.93,329.47c-11.51,7.83-41,15.9-41,15.9l-6.41-8-11.78,9.76-78.46-22.67c2.43-12.35,9.65-35.32,31.06-63h51.12l13.79,23.42,5.3-23.42h15.83S297,292.91,296.93,329.47Z" style="fill:#92E3A9"></path><path d="M296.93,329.47c-11.51,7.83-41,15.9-41,15.9l-6.41-8-11.78,9.76-78.46-22.67c2.43-12.35,9.65-35.32,31.06-63h51.12l13.79,23.42,5.3-23.42h15.83S297,292.91,296.93,329.47Z" style="opacity:0.30000000000000004"></path><circle cx="252.51" cy="324.09" r="4.77" style="fill:#92E3A9"></circle><path d="M257.74,304.31a4.77,4.77,0,1,1-4.77-4.77A4.77,4.77,0,0,1,257.74,304.31Z" style="fill:#92E3A9"></path><path d="M213.18,261.46s7.24,47.12,7.1,50-10.89,64.73-10.89,64.73L143,358.9l15.61-39.57s9.09-36.7,31.77-57.87Z" style="fill:#92E3A9"></path><path d="M272.24,261.46l5.32,44.68,10.62,62.5,21.53-7.74-10.1-18.85s.33-44-23.2-80.59Z" style="fill:#92E3A9"></path><path d="M256.94,278.8s16.6-31.88,20.2-20.18-1,19.09-1,19.09,6.26,12.74,2.28,15.82-20.42-3.84-21.06-7.14A38.08,38.08,0,0,1,256.94,278.8Z" style="fill:#455a64"></path><path d="M256.94,278.79a39.29,39.29,0,0,0,.42,7.58c.34,1.59,4.31,4,8.81,5.78a49.86,49.86,0,0,0,1.79-9.57c.2-4-4.41-9.3-6.6-11.6C258.77,275.28,256.94,278.79,256.94,278.79Z" style="fill:#263238"></path><path d="M251.07,279.31s-28.78-31.37-32.36-18.47,4.18,20.07,4.18,20.07-7.31,14.37-1.06,17.06,29.23-7,29.7-10.57A29.63,29.63,0,0,0,251.07,279.31Z" style="fill:#455a64"></path><path d="M241.81,284.89a17,17,0,0,0,2.48,7.8c4.07-2,7.09-4,7.25-5.29a29.4,29.4,0,0,0-.47-8.08s-1.9-2.06-4.76-4.91C244.64,276.54,241.85,280.74,241.81,284.89Z" style="fill:#263238"></path><path d="M245.54,284.11a9.65,9.65,0,1,0,9.09-10.18A9.64,9.64,0,0,0,245.54,284.11Z" style="fill:#455a64"></path><path d="M179.93,169.58,286.1,156.5s5.06-89.8,2.25-94.71c-1.41-2.46-40.57-16.26-74.05-12.27s-72.45,36.24-71,40.19S179.93,169.58,179.93,169.58Z" style="fill:#92E3A9"></path><path d="M288.12,114.91c-.89,21.62-2,41.59-2,41.59L179.93,169.58s-7.41-16-15.58-33.67h0s35.27-20.1,56.4-24.19C244.12,107.19,288.12,114.91,288.12,114.91Z" style="fill:#263238"></path><path d="M302.27,80.71a94.28,94.28,0,0,0-9.6,4.78q-4.67,2.63-9.1,5.62a136.06,136.06,0,0,0-31.18,29,149.92,149.92,0,0,0-11.87,17.82,110.4,110.4,0,0,1,10.94-18.53,115.76,115.76,0,0,1,31.48-29.22A91.47,91.47,0,0,1,302.27,80.71Z" style="fill:#263238"></path><path d="M299.88,82.27s-5.18-8.45-6.49-17.2c-1.34-8.94,2.17-13,4.38-13.85s6.31,4.83,6.83,11.26c0,0,5.27-11.47,12.12-9S314.66,72.36,299.88,82.27Z" style="fill:#455a64"></path><path d="M300,82s4.7-3.91,13.6-7.26c6.83-2.56,17.31-1.13,18,2.29s-9.13,5.71-9.13,5.71,8.07,3.52,6.23,8.29S309.67,91.92,300,82Z" style="fill:#455a64"></path><path d="M299.65,81.77s-6.09-10-12.59-13.67-13.44-3.31-14.47-.28,9.53,7.6,9.53,7.6-11.21,1.72-10.47,7.41S287.48,88.15,299.65,81.77Z" style="fill:#455a64"></path><path d="M300,81.82s5.65,7.14,7.84,13.39.85,11.77-1.68,12.63-7-3.62-7.16-9.24c0,0-4.16,8-9.18,6S291,90.32,300,81.82Z" style="fill:#455a64"></path><path d="M320.45,83.46a37.78,37.78,0,0,0-20-1.24c2.69-5.79,3.63-12.46,4.19-18.74a.1.1,0,0,0-.2,0c-.72,6.33-4.26,18.67-4.26,18.7-1.76-1.83-4.57-3-6.87-4a35.66,35.66,0,0,0-8.45-2.08.1.1,0,0,0,0,.2A38.43,38.43,0,0,1,293,78.84c2.43,1,7.06,3.69,7.1,3.69.33,4.93-.49,9.59-.95,14.48a.17.17,0,0,0,.34.06c1.18-4.63,1.88-9.83.89-14.57a59.67,59.67,0,0,1,20,1.21C320.52,83.75,320.59,83.51,320.45,83.46Z" style="fill:#37474f"></path><path d="M225.65,143.28l-5.33-35.84,4-.09,50.26-1.2,3.35-.08,2.21,33.37Zm2.76-29,3.21,21.59,41-2.9-1.31-19.71Z" style="fill:#fff"></path><path d="M236.31,244.5c-43.16,4.35-102.06-14.86-95.2-57.59,6.47-40.23,53.49-59.85,79.32-65.22l2.65-.53s7,16.66,29.1,18c21.73,1.32,32-14.48,32.25-14.95,26.25,9.13,43.24,28.65,45.78,52.52C333.9,211.29,294.73,238.61,236.31,244.5Z" style="fill:#92E3A9"></path><path d="M236.31,244.5c-43.16,4.35-102.06-14.86-95.2-57.59,6.47-40.23,53.49-59.85,79.32-65.22l2.65-.53s7,16.66,29.1,18c21.73,1.32,32-14.48,32.25-14.95,26.25,9.13,43.24,28.65,45.78,52.52C333.9,211.29,294.73,238.61,236.31,244.5Z" style="opacity:0.1"></path><path d="M292.58,207.57s2.51-23.91,12.71-23.94,15,30,7.68,38.47S297.68,224,297.68,224Z" style="fill:#ffc4c0"></path><path d="M306.44,192.26a.15.15,0,0,1,.19.22c-5,6.17-5.08,14-4,21.52.6-3.44,2.48-6.19,6.94-5.68.23,0,.21.38,0,.45-2.95.89-4.6,2.4-5.21,5.5a32.07,32.07,0,0,0-.2,6.79c0,.74-1.19,1-1.34.22l0-.17C298.07,213,298.09,198,306.44,192.26Z" style="fill:#263238"></path><path d="M184.67,167.8s29.71-20.62,65-20.4,43.23,12.42,43.23,12.42,7.09,34.81,12,50.1,17.73,56.76-31.93,71.17c-45.45,13.19-81.14-2.66-89.78-17.92C172.65,244.7,184.67,167.8,184.67,167.8Z" style="fill:#ffc4c0"></path><path d="M237.25,198c-.05-.16-.3.24-.28.41.64,4.19.66,9.09-3,10.94-.11.05-.08.27.06.23C238.62,208.34,238.52,201.83,237.25,198Z" style="fill:#263238"></path><path d="M233,194c-6.83.3-5.74,13.92.58,13.65S238.7,193.78,233,194Z" style="fill:#263238"></path><path d="M270.91,194.55c0-.16.35.17.36.35.19,4.23,1.11,9,5,10.15.12,0,.13.25,0,.24C271.58,205,270.41,198.59,270.91,194.55Z" style="fill:#263238"></path><path d="M274.35,189.85c6.75-1,8.32,12.54,2.07,13.5S268.69,190.72,274.35,189.85Z" style="fill:#263238"></path><path d="M225.09,189.18a79.19,79.19,0,0,0,8.42-1c3.23-.41,5.84-.4,8.4-2.63a4.35,4.35,0,0,0,.49-5.31c-2.41-3.36-6.49-3.84-10.39-3.51a15.92,15.92,0,0,0-10.47,4.68C218.58,184.3,221.26,189.27,225.09,189.18Z" style="fill:#dd5a45"></path><path d="M282.25,178.61a81.9,81.9,0,0,1-8.43-.88c-3.23-.38-5.85-.34-8.43-2.54a4.36,4.36,0,0,1-.55-5.3c2.38-3.39,6.45-3.92,10.36-3.63a15.9,15.9,0,0,1,10.51,4.56C288.7,173.65,286.08,178.65,282.25,178.61Z" style="fill:#dd5a45"></path><path d="M249.67,222.19a14.41,14.41,0,0,0,10.48,4.9,18.06,18.06,0,0,0,5.16-.54,5.62,5.62,0,0,0,1-.26c.3-.08.57-.16.9-.28a1.07,1.07,0,0,0,.7-1.06v0a3,3,0,0,0-.1-.43v0l-.06-.36c-.4-3.24-1.46-8.1-1.46-8.1,1.27.42,7.69,2.21,7.34.54-2.94-13.81-6.21-29.18-12.06-42.3a.39.39,0,0,0-.74.22c2.3,13.39,6.93,26.28,9.46,39.69-2-.43-5.36-1.31-7-1-.44.2,2.21,9.35,2.27,10.81a.49.49,0,0,1,0,.16c-5.31,1.51-9.64.49-15.44-2.35C249.66,221.56,249.37,221.89,249.67,222.19Z" style="fill:#263238"></path><path d="M263.16,225.2s-2.27,4.29-6,6.28a7.71,7.71,0,0,1-4.58,1c-3.47-.37-4-3.43-3.8-6.15a18.36,18.36,0,0,1,.89-4.24A22.14,22.14,0,0,0,263.16,225.2Z" style="fill:#263238"></path><path d="M257.18,231.48a7.71,7.71,0,0,1-4.58,1c-3.47-.37-4-3.43-3.8-6.15C252.44,226.14,256.35,228,257.18,231.48Z" style="fill:#ff97b8"></path><circle cx="220.28" cy="213.83" r="8.78" style="fill:#ff97b8"></circle><circle cx="288.52" cy="207.67" r="8.78" style="fill:#ff97b8"></circle><path d="M186.33,216.08S171.94,196.82,163.16,202s2.48,33.42,13.09,37,14.12-6.19,14.12-6.19Z" style="fill:#ffc4c0"></path><path d="M166.59,210a.15.15,0,0,0-.05.29c7.45,2.74,11.54,9.44,14.48,16.43-2.28-2.66-5.3-4.05-8.87-1.34-.18.15,0,.44.21.39,3-.74,5.19-.29,7.3,2.06a32,32,0,0,1,3.64,5.74c.37.64,1.54.25,1.27-.5,0-.05,0-.11-.07-.17C184.39,223.54,176.69,210.65,166.59,210Z" style="fill:#263238"></path><path d="M184.67,167.8s-2.66,20-4.16,28.15-10.72,21.78-8.89,23.2,5.32-4.74,5.32-4.74-9.51,20.12-7.12,21.79,5.71-2.29,5.71-2.29-2.74,19.78,3.31,30.88c9.35,17.18,48.75,27.95,82.72,21.22,35.73-7.09,46.65-22.94,50.8-35.47s-4-33.16-4-33.16,2.5,3.6,4.08,3-6-10.81-7.4-16.46c0,0,2.33,3.28,3.41,2.84s-5.66-8.69-9.56-20.75-5.16-26.32-5.16-26.32L289,156.32s2.57,22.68,5.06,33.32c1.33,5.63,6.67,15.39,8.15,24.77,1.32,8.34.33,15.06-1.66,20.28-2.94,7.69-21.78,18.63-29.65,14.31-5.93-3.26-7.63-17.16-7.63-17.16l-5.72,1.5s1.9,14.82-5.82,19.68c-4.33,2.73-33.54,5.85-49-6.09-5.95-4.59-9.27-17-6.15-26a172.56,172.56,0,0,0,5.88-19.29c2.33-10.39-.16-43.36-.16-43.36S189.32,163.75,184.67,167.8Z" style="fill:#dd5a45"></path><path d="M225,150.41a15.74,15.74,0,0,0,5.89,7.29c4.33,2.78,13.56,3.94,13.56,3.94l-4.36-4.82a46.88,46.88,0,0,0,14.75,5.87c8.75,1.89,19.51-1.44,19.51-1.44s-13.4-11.27-10.13-8.9a28.84,28.84,0,0,0,7.2,4,6.23,6.23,0,0,0,1.15-6.6S249.33,142.78,225,150.41Z" style="fill:#dd5a45"></path><path d="M225,150.41a24.79,24.79,0,0,0,2.86,4.12,21.67,21.67,0,0,0,3.61,3.36,18.87,18.87,0,0,0,4.29,2.42,28.3,28.3,0,0,0,4.79,1.47,21.93,21.93,0,0,1-2.55-.15,15.51,15.51,0,0,1-2.51-.59,15.23,15.23,0,0,1-4.61-2.35,16.5,16.5,0,0,1-3.63-3.69A14.54,14.54,0,0,1,225,150.41Z" style="fill:#dd6a57"></path><path d="M240.06,156.82c1.27.66,2.54,1.31,3.83,1.9s2.58,1.19,3.9,1.71a50.15,50.15,0,0,0,8.05,2.55,39.22,39.22,0,0,0,8.39.74,40.05,40.05,0,0,0,4.24-.27,38,38,0,0,0,4.21-.67,30.87,30.87,0,0,1-8.41,1.68,31.67,31.67,0,0,1-8.63-.51,37.73,37.73,0,0,1-8.17-2.8A45,45,0,0,1,240.06,156.82Z" style="fill:#dd6a57"></path><path d="M224.67,286.55c2.07-.95,6.72-3.12,8.79-1.79,3.15,2,5.27,6.49,6.66,9.81a21.1,21.1,0,0,1,1.53,4.93,4.47,4.47,0,0,0,0,1.1c0-.07-.06-.15.14-.27.63-.39-1.15.42-1.26.46a30.14,30.14,0,0,1-9.31,1.28c-4.14.08-4.15,6.52,0,6.44,4.41-.07,9.72-.34,13.61-2.6,4.92-2.85,3.19-8.74,1.45-13.06-2-5-5.06-11.13-10-13.86-4.57-2.55-10.6,0-14.94,2-3.77,1.72-.5,7.27,3.25,5.56Z" style="fill:#37474f"></path><path d="M240.39,321.41a49.14,49.14,0,0,1-13.71,28.44,47.42,47.42,0,0,1-13.47,9.41c-7.46,3.52-16.8,6.44-31.43,6.44s-24-2.92-31.44-6.44a47.42,47.42,0,0,1-13.47-9.41,49.14,49.14,0,0,1-13.71-28.44c-3.4-24.87,14.4-37.76,15.53-41.08a16.45,16.45,0,0,0,.85-6.27s13.24,5.4,42.24,5.62c29-.22,42.23-5.62,42.23-5.62a16.45,16.45,0,0,0,.85,6.27C226,283.65,243.8,296.54,240.39,321.41Z" style="fill:#263238"></path><path d="M134.25,268.39c-.22,5.78,2.16,15.95,49,14.92s45.95-13.36,46-15.67-5.25-12.87-47-12.71C139.58,255.08,134.37,265.5,134.25,268.39Z" style="fill:#37474f"></path><path d="M141.77,265.36a5.69,5.69,0,0,0,1.62,2.06,12.43,12.43,0,0,0,2.16,1.5,24.91,24.91,0,0,0,4.85,2,43.17,43.17,0,0,0,5.13,1.27c1.73.34,3.47.6,5.23.82,3.51.39,7,.65,10.58.74s7.09.12,10.63,0,7.1-.22,10.63-.46,7.07-.59,10.57-1.09A66.12,66.12,0,0,0,213.5,270a26.58,26.58,0,0,0,4.86-2,12.8,12.8,0,0,0,2.15-1.51,4.91,4.91,0,0,0,1.54-2.11,5,5,0,0,1-1.35,2.31,13.34,13.34,0,0,1-2.09,1.73,26,26,0,0,1-4.82,2.44,58.57,58.57,0,0,1-10.4,2.82,138.2,138.2,0,0,1-21.38,2,123.09,123.09,0,0,1-21.44-1.16,53.28,53.28,0,0,1-10.46-2.64,25.2,25.2,0,0,1-4.83-2.45,13.18,13.18,0,0,1-2.08-1.73A5.77,5.77,0,0,1,141.77,265.36Z" style="fill:#263238"></path><path d="M159.36,267.71l0,2.42c0,1.58-3.85,2.91-8.64,3s-8.69-1.19-8.71-2.77l0-2.42a1.57,1.57,0,0,0,.82,1.2,8.74,8.74,0,0,0,3.2,1.17,23.63,23.63,0,0,0,4.68.41,23,23,0,0,0,4.67-.51,9,9,0,0,0,3.18-1.24A1.6,1.6,0,0,0,159.36,267.71Z" style="fill:#92E3A9"></path><path d="M159.36,267.71l0,2.42c0,1.58-3.85,2.91-8.64,3s-8.69-1.19-8.71-2.77l0-2.42a1.57,1.57,0,0,0,.82,1.2,8.74,8.74,0,0,0,3.2,1.17,23.63,23.63,0,0,0,4.68.41,23,23,0,0,0,4.67-.51,9,9,0,0,0,3.18-1.24A1.6,1.6,0,0,0,159.36,267.71Z" style="opacity:0.1"></path><path d="M159.36,267.71a1.6,1.6,0,0,1-.79,1.22,9,9,0,0,1-3.18,1.24,22.36,22.36,0,0,1-4.67.5,22.94,22.94,0,0,1-4.68-.4,8.93,8.93,0,0,1-3.2-1.17,1.57,1.57,0,0,1-.82-1.2c0-1.58,3.85-2.91,8.64-3s8.48,1.13,8.69,2.65C159.35,267.63,159.36,267.67,159.36,267.71Z" style="fill:#92E3A9"></path><path d="M157.42,267.39a1.24,1.24,0,0,1-.62.95,6.87,6.87,0,0,1-2.46,1,17.11,17.11,0,0,1-3.63.39,17.49,17.49,0,0,1-3.63-.31,6.75,6.75,0,0,1-2.49-.91,1.21,1.21,0,0,1-.64-.93c0-1.23,3-2.26,6.71-2.3s6.59.88,6.75,2.06A.28.28,0,0,1,157.42,267.39Z" style="fill:#fff;opacity:0.30000000000000004"></path><path d="M223.81,264.11l0,2.42c0,1.58-3.85,2.9-8.64,3s-8.69-1.19-8.71-2.77l0-2.42a1.57,1.57,0,0,0,.82,1.2,8.93,8.93,0,0,0,3.2,1.17,23.7,23.7,0,0,0,4.68.41,23,23,0,0,0,4.67-.51,9,9,0,0,0,3.18-1.24A1.57,1.57,0,0,0,223.81,264.11Z" style="fill:#92E3A9"></path><path d="M223.81,264.11l0,2.42c0,1.58-3.85,2.9-8.64,3s-8.69-1.19-8.71-2.77l0-2.42a1.57,1.57,0,0,0,.82,1.2,8.93,8.93,0,0,0,3.2,1.17,23.7,23.7,0,0,0,4.68.41,23,23,0,0,0,4.67-.51,9,9,0,0,0,3.18-1.24A1.57,1.57,0,0,0,223.81,264.11Z" style="opacity:0.1"></path><path d="M223.81,264.11a1.57,1.57,0,0,1-.79,1.22,9,9,0,0,1-3.18,1.24,24.51,24.51,0,0,1-9.35.1,8.93,8.93,0,0,1-3.2-1.17,1.57,1.57,0,0,1-.82-1.2c0-1.58,3.85-2.91,8.64-3s8.48,1.13,8.69,2.65A.49.49,0,0,1,223.81,264.11Z" style="fill:#92E3A9"></path><path d="M221.87,263.79a1.25,1.25,0,0,1-.61.95,7,7,0,0,1-2.47,1,17.11,17.11,0,0,1-3.63.39,17.49,17.49,0,0,1-3.63-.31,6.82,6.82,0,0,1-2.49-.91,1.21,1.21,0,0,1-.64-.93c0-1.23,3-2.26,6.71-2.3s6.59.88,6.75,2.06A.28.28,0,0,1,221.87,263.79Z" style="fill:#fff;opacity:0.30000000000000004"></path><path d="M164.76,262.09l0,2.42c0,1.58-3.85,2.9-8.64,3s-8.69-1.19-8.71-2.77l0-2.42a1.57,1.57,0,0,0,.82,1.2,8.93,8.93,0,0,0,3.2,1.17,23.63,23.63,0,0,0,4.68.41,23,23,0,0,0,4.67-.51,9,9,0,0,0,3.18-1.24A1.6,1.6,0,0,0,164.76,262.09Z" style="fill:#92E3A9"></path><path d="M164.76,262.09l0,2.42c0,1.58-3.85,2.9-8.64,3s-8.69-1.19-8.71-2.77l0-2.42a1.57,1.57,0,0,0,.82,1.2,8.93,8.93,0,0,0,3.2,1.17,23.63,23.63,0,0,0,4.68.41,23,23,0,0,0,4.67-.51,9,9,0,0,0,3.18-1.24A1.6,1.6,0,0,0,164.76,262.09Z" style="opacity:0.1"></path><path d="M164.76,262.09a1.61,1.61,0,0,1-.79,1.22,9,9,0,0,1-3.18,1.24,24.51,24.51,0,0,1-9.35.1,8.93,8.93,0,0,1-3.2-1.17,1.57,1.57,0,0,1-.82-1.2c0-1.58,3.85-2.91,8.64-3s8.48,1.13,8.69,2.65C164.75,262,164.76,262.05,164.76,262.09Z" style="fill:#92E3A9"></path><path d="M162.82,261.77a1.24,1.24,0,0,1-.62,1,6.87,6.87,0,0,1-2.46,1,17.11,17.11,0,0,1-3.63.39,17.49,17.49,0,0,1-3.63-.31,6.93,6.93,0,0,1-2.49-.91,1.21,1.21,0,0,1-.64-.93c0-1.23,3-2.26,6.71-2.3s6.59.88,6.75,2.06C162.81,261.71,162.82,261.74,162.82,261.77Z" style="fill:#fff;opacity:0.30000000000000004"></path><path d="M171,267.1l0,2.41c0,1.58-3.85,2.91-8.64,3s-8.68-1.19-8.7-2.77l0-2.42a1.6,1.6,0,0,0,.82,1.2,9,9,0,0,0,3.21,1.18,24.51,24.51,0,0,0,9.35-.1,8.94,8.94,0,0,0,3.17-1.25A1.55,1.55,0,0,0,171,267.1Z" style="fill:#92E3A9"></path><path d="M171,267.1l0,2.41c0,1.58-3.85,2.91-8.64,3s-8.68-1.19-8.7-2.77l0-2.42a1.6,1.6,0,0,0,.82,1.2,9,9,0,0,0,3.21,1.18,24.51,24.51,0,0,0,9.35-.1,8.94,8.94,0,0,0,3.17-1.25A1.55,1.55,0,0,0,171,267.1Z" style="opacity:0.1"></path><path d="M171,267.09a1.57,1.57,0,0,1-.79,1.22,9,9,0,0,1-3.17,1.24,24.25,24.25,0,0,1-9.35.11,9,9,0,0,1-3.21-1.18,1.6,1.6,0,0,1-.82-1.2c0-1.58,3.85-2.9,8.64-3s8.49,1.13,8.69,2.65A.49.49,0,0,1,171,267.09Z" style="fill:#92E3A9"></path><path d="M169.1,266.78a1.2,1.2,0,0,1-.61.94,6.92,6.92,0,0,1-2.47,1,19,19,0,0,1-7.26.08,7.07,7.07,0,0,1-2.49-.92,1.25,1.25,0,0,1-.64-.93c0-1.22,3-2.25,6.72-2.3s6.59.88,6.75,2.06Z" style="fill:#fff;opacity:0.30000000000000004"></path><path d="M217.09,268.76l0,2.41c0,1.58-3.85,2.91-8.64,3s-8.69-1.19-8.7-2.77l0-2.41a1.61,1.61,0,0,0,.82,1.2,9,9,0,0,0,3.21,1.17,24.46,24.46,0,0,0,9.34-.1A9,9,0,0,0,216.3,270,1.55,1.55,0,0,0,217.09,268.76Z" style="fill:#92E3A9"></path><path d="M217.09,268.76l0,2.41c0,1.58-3.85,2.91-8.64,3s-8.69-1.19-8.7-2.77l0-2.41a1.61,1.61,0,0,0,.82,1.2,9,9,0,0,0,3.21,1.17,24.46,24.46,0,0,0,9.34-.1A9,9,0,0,0,216.3,270,1.55,1.55,0,0,0,217.09,268.76Z" style="opacity:0.1"></path><path d="M217.09,268.75a1.57,1.57,0,0,1-.79,1.22,8.83,8.83,0,0,1-3.18,1.24,24.19,24.19,0,0,1-9.34.11,9,9,0,0,1-3.21-1.18,1.6,1.6,0,0,1-.82-1.2c0-1.58,3.85-2.9,8.64-2.95s8.49,1.12,8.69,2.64A.49.49,0,0,1,217.09,268.75Z" style="fill:#92E3A9"></path><path d="M215.15,268.44a1.22,1.22,0,0,1-.61.94,7,7,0,0,1-2.47,1,18.43,18.43,0,0,1-3.63.39,18.2,18.2,0,0,1-3.63-.31,6.88,6.88,0,0,1-2.49-.92,1.25,1.25,0,0,1-.64-.93c0-1.22,3-2.25,6.72-2.29s6.58.87,6.74,2A.34.34,0,0,1,215.15,268.44Z" style="fill:#fff;opacity:0.30000000000000004"></path><path d="M180.16,262.09l0,2.42c0,1.58-3.85,2.9-8.64,3s-8.69-1.19-8.7-2.77l0-2.42a1.57,1.57,0,0,0,.82,1.2,8.91,8.91,0,0,0,3.21,1.17,23.52,23.52,0,0,0,4.67.41,23,23,0,0,0,4.67-.51,9,9,0,0,0,3.18-1.24A1.57,1.57,0,0,0,180.16,262.09Z" style="fill:#92E3A9"></path><path d="M180.16,262.09l0,2.42c0,1.58-3.85,2.9-8.64,3s-8.69-1.19-8.7-2.77l0-2.42a1.57,1.57,0,0,0,.82,1.2,8.91,8.91,0,0,0,3.21,1.17,23.52,23.52,0,0,0,4.67.41,23,23,0,0,0,4.67-.51,9,9,0,0,0,3.18-1.24A1.57,1.57,0,0,0,180.16,262.09Z" style="opacity:0.1"></path><path d="M180.16,262.09a1.58,1.58,0,0,1-.79,1.22,9,9,0,0,1-3.18,1.24,24.46,24.46,0,0,1-9.34.1,8.91,8.91,0,0,1-3.21-1.17,1.57,1.57,0,0,1-.82-1.2c0-1.58,3.85-2.91,8.64-3s8.49,1.13,8.69,2.65A.49.49,0,0,1,180.16,262.09Z" style="fill:#92E3A9"></path><path d="M178.22,261.77a1.22,1.22,0,0,1-.61,1,7,7,0,0,1-2.47,1,17.11,17.11,0,0,1-3.63.39,17.49,17.49,0,0,1-3.63-.31,7,7,0,0,1-2.49-.91,1.24,1.24,0,0,1-.64-.93c0-1.23,3-2.26,6.71-2.3s6.59.88,6.75,2.06A.28.28,0,0,1,178.22,261.77Z" style="fill:#fff;opacity:0.30000000000000004"></path><path d="M216,259.92l0,2.41c0,1.58-3.85,2.91-8.63,3s-8.69-1.19-8.71-2.77l0-2.41a1.56,1.56,0,0,0,.81,1.2,9.06,9.06,0,0,0,3.21,1.17,24.51,24.51,0,0,0,9.35-.1,9,9,0,0,0,3.18-1.24A1.61,1.61,0,0,0,216,259.92Z" style="fill:#92E3A9"></path><path d="M216,259.92l0,2.41c0,1.58-3.85,2.91-8.63,3s-8.69-1.19-8.71-2.77l0-2.41a1.56,1.56,0,0,0,.81,1.2,9.06,9.06,0,0,0,3.21,1.17,24.51,24.51,0,0,0,9.35-.1,9,9,0,0,0,3.18-1.24A1.61,1.61,0,0,0,216,259.92Z" style="opacity:0.1"></path><path d="M216,259.92a1.58,1.58,0,0,1-.79,1.21,9,9,0,0,1-3.18,1.25,24.51,24.51,0,0,1-9.35.1,9.05,9.05,0,0,1-3.21-1.18,1.56,1.56,0,0,1-.81-1.2c0-1.57,3.85-2.9,8.64-3s8.48,1.13,8.69,2.64C216,259.83,216,259.88,216,259.92Z" style="fill:#92E3A9"></path><path d="M214.07,259.6a1.24,1.24,0,0,1-.62.94,6.92,6.92,0,0,1-2.47,1,18.41,18.41,0,0,1-3.62.39,18.06,18.06,0,0,1-3.63-.31,7.07,7.07,0,0,1-2.5-.91,1.22,1.22,0,0,1-.63-.94c0-1.22,3-2.25,6.71-2.29s6.59.87,6.75,2.05C214.06,259.54,214.07,259.57,214.07,259.6Z" style="fill:#fff;opacity:0.30000000000000004"></path><path d="M173.14,261.46l0,2.42c0,1.58-3.85,2.91-8.64,3s-8.68-1.19-8.7-2.77l0-2.42a1.6,1.6,0,0,0,.82,1.2,9.05,9.05,0,0,0,3.21,1.18,24.25,24.25,0,0,0,9.35-.11,8.77,8.77,0,0,0,3.17-1.24A1.61,1.61,0,0,0,173.14,261.46Z" style="fill:#92E3A9"></path><path d="M173.14,261.46l0,2.42c0,1.58-3.85,2.91-8.64,3s-8.68-1.19-8.7-2.77l0-2.42a1.6,1.6,0,0,0,.82,1.2,9.05,9.05,0,0,0,3.21,1.18,24.25,24.25,0,0,0,9.35-.11,8.77,8.77,0,0,0,3.17-1.24A1.61,1.61,0,0,0,173.14,261.46Z" style="opacity:0.1"></path><path d="M173.14,261.46a1.61,1.61,0,0,1-.8,1.22,9,9,0,0,1-3.17,1.24,23.09,23.09,0,0,1-4.67.51,23.63,23.63,0,0,1-4.68-.41,9.06,9.06,0,0,1-3.21-1.17,1.6,1.6,0,0,1-.82-1.2c0-1.58,3.85-2.91,8.64-3s8.49,1.13,8.69,2.65C173.13,261.38,173.13,261.42,173.14,261.46Z" style="fill:#92E3A9"></path><path d="M171.19,261.14a1.2,1.2,0,0,1-.61.95,6.93,6.93,0,0,1-2.47,1,17.64,17.64,0,0,1-3.62.4,18.19,18.19,0,0,1-3.64-.32,6.89,6.89,0,0,1-2.49-.91,1.22,1.22,0,0,1-.63-.93c0-1.23,3-2.26,6.71-2.3s6.59.88,6.75,2.06Z" style="fill:#fff;opacity:0.30000000000000004"></path><path d="M167.12,256.81l0,2.42c0,1.58-3.85,2.9-8.64,2.95s-8.69-1.19-8.7-2.76l0-2.42a1.6,1.6,0,0,0,.82,1.2,9,9,0,0,0,3.21,1.17,24.51,24.51,0,0,0,9.35-.1,9,9,0,0,0,3.17-1.24A1.57,1.57,0,0,0,167.12,256.81Z" style="fill:#92E3A9"></path><path d="M167.12,256.81l0,2.42c0,1.58-3.85,2.9-8.64,2.95s-8.69-1.19-8.7-2.76l0-2.42a1.6,1.6,0,0,0,.82,1.2,9,9,0,0,0,3.21,1.17,24.51,24.51,0,0,0,9.35-.1,9,9,0,0,0,3.17-1.24A1.57,1.57,0,0,0,167.12,256.81Z" style="opacity:0.1"></path><path d="M167.12,256.81a1.55,1.55,0,0,1-.79,1.21,8.76,8.76,0,0,1-3.17,1.25,24.51,24.51,0,0,1-9.35.1,9,9,0,0,1-3.21-1.17,1.6,1.6,0,0,1-.82-1.2c0-1.58,3.85-2.91,8.64-3s8.49,1.13,8.69,2.65A.49.49,0,0,1,167.12,256.81Z" style="fill:#92E3A9"></path><path d="M165.18,256.49a1.21,1.21,0,0,1-.61.95,7.21,7.21,0,0,1-2.47,1,19,19,0,0,1-7.26.08,7.08,7.08,0,0,1-2.49-.91,1.27,1.27,0,0,1-.64-.93c0-1.23,3-2.26,6.72-2.3s6.59.88,6.75,2.06Z" style="fill:#fff;opacity:0.30000000000000004"></path><path d="M181.3,255l0,2.42c0,1.58-3.85,2.91-8.63,3s-8.69-1.19-8.71-2.77l0-2.42a1.6,1.6,0,0,0,.82,1.2,8.87,8.87,0,0,0,3.21,1.17,23.63,23.63,0,0,0,4.68.41,23.09,23.09,0,0,0,4.67-.51,9,9,0,0,0,3.18-1.24A1.6,1.6,0,0,0,181.3,255Z" style="fill:#92E3A9"></path><path d="M181.3,255l0,2.42c0,1.58-3.85,2.91-8.63,3s-8.69-1.19-8.71-2.77l0-2.42a1.6,1.6,0,0,0,.82,1.2,8.87,8.87,0,0,0,3.21,1.17,23.63,23.63,0,0,0,4.68.41,23.09,23.09,0,0,0,4.67-.51,9,9,0,0,0,3.18-1.24A1.6,1.6,0,0,0,181.3,255Z" style="opacity:0.1"></path><path d="M181.3,255a1.6,1.6,0,0,1-.79,1.22,9,9,0,0,1-3.18,1.24,24.51,24.51,0,0,1-9.35.1,9.06,9.06,0,0,1-3.21-1.17,1.6,1.6,0,0,1-.82-1.2c0-1.58,3.86-2.91,8.65-3s8.48,1.13,8.69,2.65C181.29,254.9,181.3,254.94,181.3,255Z" style="fill:#92E3A9"></path><path d="M179.36,254.66a1.24,1.24,0,0,1-.62,1,6.93,6.93,0,0,1-2.47,1,17,17,0,0,1-3.62.39,17.52,17.52,0,0,1-3.64-.31,6.89,6.89,0,0,1-2.49-.91,1.22,1.22,0,0,1-.63-.93c0-1.23,3-2.26,6.71-2.3s6.59.88,6.75,2.06C179.35,254.6,179.36,254.63,179.36,254.66Z" style="fill:#fff;opacity:0.30000000000000004"></path><path d="M189.41,257.86l0,2.41c0,1.58-3.85,2.91-8.64,3s-8.69-1.19-8.7-2.77l0-2.41a1.61,1.61,0,0,0,.82,1.2,9,9,0,0,0,3.21,1.17,24.46,24.46,0,0,0,9.34-.1,8.82,8.82,0,0,0,3.18-1.25A1.55,1.55,0,0,0,189.41,257.86Z" style="fill:#92E3A9"></path><path d="M189.41,257.86l0,2.41c0,1.58-3.85,2.91-8.64,3s-8.69-1.19-8.7-2.77l0-2.41a1.61,1.61,0,0,0,.82,1.2,9,9,0,0,0,3.21,1.17,24.46,24.46,0,0,0,9.34-.1,8.82,8.82,0,0,0,3.18-1.25A1.55,1.55,0,0,0,189.41,257.86Z" style="opacity:0.1"></path><path d="M189.41,257.86a1.55,1.55,0,0,1-.79,1.21,9,9,0,0,1-3.18,1.25,23.77,23.77,0,0,1-4.66.5,22.94,22.94,0,0,1-4.68-.4,9,9,0,0,1-3.21-1.18,1.6,1.6,0,0,1-.82-1.2c0-1.57,3.85-2.9,8.64-3s8.49,1.13,8.69,2.64A.53.53,0,0,1,189.41,257.86Z" style="fill:#92E3A9"></path><path d="M187.47,257.54a1.22,1.22,0,0,1-.61.94,7,7,0,0,1-2.47,1,18.43,18.43,0,0,1-3.63.39,18.2,18.2,0,0,1-3.63-.31,7.08,7.08,0,0,1-2.49-.91,1.26,1.26,0,0,1-.64-.94c0-1.22,3-2.25,6.72-2.29s6.58.87,6.74,2.05A.34.34,0,0,1,187.47,257.54Z" style="fill:#fff;opacity:0.30000000000000004"></path><path d="M203,259l0,2.42c0,1.58-3.85,2.9-8.64,2.95s-8.68-1.19-8.7-2.77l0-2.41a1.6,1.6,0,0,0,.82,1.2,9.06,9.06,0,0,0,3.21,1.17,24.51,24.51,0,0,0,9.35-.1,9,9,0,0,0,3.17-1.24A1.6,1.6,0,0,0,203,259Z" style="fill:#92E3A9"></path><path d="M203,259l0,2.42c0,1.58-3.85,2.9-8.64,2.95s-8.68-1.19-8.7-2.77l0-2.41a1.6,1.6,0,0,0,.82,1.2,9.06,9.06,0,0,0,3.21,1.17,24.51,24.51,0,0,0,9.35-.1,9,9,0,0,0,3.17-1.24A1.6,1.6,0,0,0,203,259Z" style="opacity:0.1"></path><path d="M203,259a1.57,1.57,0,0,1-.8,1.21,8.76,8.76,0,0,1-3.17,1.25,24.51,24.51,0,0,1-9.35.1,9.06,9.06,0,0,1-3.21-1.17,1.61,1.61,0,0,1-.82-1.2c0-1.58,3.85-2.91,8.65-3s8.48,1.13,8.69,2.65C203,258.94,203,259,203,259Z" style="fill:#92E3A9"></path><path d="M201,258.7a1.25,1.25,0,0,1-.62.95,7.12,7.12,0,0,1-2.47,1,19,19,0,0,1-7.26.08,7.08,7.08,0,0,1-2.49-.91,1.22,1.22,0,0,1-.63-.93c0-1.23,3-2.26,6.71-2.3s6.59.88,6.75,2.06C201,258.64,201,258.67,201,258.7Z" style="fill:#fff;opacity:0.30000000000000004"></path><path d="M211.1,257.49l0,2.42c0,1.58-3.85,2.9-8.64,3s-8.68-1.19-8.7-2.77l0-2.42a1.6,1.6,0,0,0,.82,1.2,9,9,0,0,0,3.21,1.17,22.94,22.94,0,0,0,4.68.4,22.43,22.43,0,0,0,4.67-.5,9,9,0,0,0,3.17-1.24A1.57,1.57,0,0,0,211.1,257.49Z" style="fill:#92E3A9"></path><path d="M211.1,257.49l0,2.42c0,1.58-3.85,2.9-8.64,3s-8.68-1.19-8.7-2.77l0-2.42a1.6,1.6,0,0,0,.82,1.2,9,9,0,0,0,3.21,1.17,22.94,22.94,0,0,0,4.68.4,22.43,22.43,0,0,0,4.67-.5,9,9,0,0,0,3.17-1.24A1.57,1.57,0,0,0,211.1,257.49Z" style="opacity:0.1"></path><path d="M211.1,257.49a1.58,1.58,0,0,1-.79,1.22,9,9,0,0,1-3.17,1.24,24.51,24.51,0,0,1-9.35.1,9,9,0,0,1-3.21-1.17,1.6,1.6,0,0,1-.82-1.2c0-1.58,3.85-2.91,8.64-3s8.49,1.13,8.69,2.65A.49.49,0,0,1,211.1,257.49Z" style="fill:#92E3A9"></path><path d="M209.16,257.17a1.21,1.21,0,0,1-.61.95,7.12,7.12,0,0,1-2.47,1,19,19,0,0,1-7.26.08,7.08,7.08,0,0,1-2.49-.91,1.27,1.27,0,0,1-.64-.93c0-1.23,3-2.26,6.72-2.3s6.59.88,6.75,2.06Z" style="fill:#fff;opacity:0.30000000000000004"></path><path d="M194.3,262.45l0,2.42c0,1.58-3.85,2.9-8.63,3s-8.69-1.19-8.71-2.77l0-2.42a1.56,1.56,0,0,0,.81,1.2A9.06,9.06,0,0,0,181,265a22.94,22.94,0,0,0,4.68.4,22.43,22.43,0,0,0,4.67-.5,9,9,0,0,0,3.18-1.24A1.6,1.6,0,0,0,194.3,262.45Z" style="fill:#92E3A9"></path><path d="M194.3,262.45l0,2.42c0,1.58-3.85,2.9-8.63,3s-8.69-1.19-8.71-2.77l0-2.42a1.56,1.56,0,0,0,.81,1.2A9.06,9.06,0,0,0,181,265a22.94,22.94,0,0,0,4.68.4,22.43,22.43,0,0,0,4.67-.5,9,9,0,0,0,3.18-1.24A1.6,1.6,0,0,0,194.3,262.45Z" style="opacity:0.1"></path><path d="M194.3,262.45a1.61,1.61,0,0,1-.79,1.22,9,9,0,0,1-3.18,1.24,24.51,24.51,0,0,1-9.35.1,9.06,9.06,0,0,1-3.21-1.17,1.56,1.56,0,0,1-.81-1.2c0-1.58,3.85-2.91,8.64-3s8.48,1.13,8.69,2.65C194.29,262.37,194.3,262.41,194.3,262.45Z" style="fill:#92E3A9"></path><path d="M192.36,262.13a1.24,1.24,0,0,1-.62.95,7,7,0,0,1-2.46,1,17.87,17.87,0,0,1-3.63.39,17.36,17.36,0,0,1-3.63-.31,7.07,7.07,0,0,1-2.5-.91,1.22,1.22,0,0,1-.63-.93c0-1.23,3-2.26,6.71-2.3s6.59.88,6.75,2.06C192.35,262.07,192.36,262.1,192.36,262.13Z" style="fill:#fff;opacity:0.30000000000000004"></path><path d="M198.72,255l0,2.41c0,1.58-3.85,2.91-8.63,3s-8.69-1.19-8.71-2.77l0-2.42a1.6,1.6,0,0,0,.82,1.2,9.05,9.05,0,0,0,3.21,1.18,24.25,24.25,0,0,0,9.35-.11,8.77,8.77,0,0,0,3.17-1.24A1.57,1.57,0,0,0,198.72,255Z" style="fill:#92E3A9"></path><path d="M198.72,255l0,2.41c0,1.58-3.85,2.91-8.63,3s-8.69-1.19-8.71-2.77l0-2.42a1.6,1.6,0,0,0,.82,1.2,9.05,9.05,0,0,0,3.21,1.18,24.25,24.25,0,0,0,9.35-.11,8.77,8.77,0,0,0,3.17-1.24A1.57,1.57,0,0,0,198.72,255Z" style="opacity:0.1"></path><path d="M198.72,254.94a1.58,1.58,0,0,1-.8,1.22,9,9,0,0,1-3.17,1.24,23.09,23.09,0,0,1-4.67.51,23.63,23.63,0,0,1-4.68-.41,8.87,8.87,0,0,1-3.21-1.17,1.6,1.6,0,0,1-.82-1.2c0-1.58,3.86-2.9,8.65-3s8.48,1.13,8.69,2.65C198.71,254.86,198.72,254.9,198.72,254.94Z" style="fill:#92E3A9"></path><path d="M196.78,254.63a1.24,1.24,0,0,1-.62.94,6.92,6.92,0,0,1-2.47,1,18.41,18.41,0,0,1-3.62.39,18.19,18.19,0,0,1-3.64-.32,6.89,6.89,0,0,1-2.49-.91,1.21,1.21,0,0,1-.63-.93c0-1.22,3-2.26,6.71-2.3s6.59.88,6.75,2.06C196.77,254.56,196.78,254.59,196.78,254.63Z" style="fill:#fff;opacity:0.30000000000000004"></path><path d="M186.88,265.6l0,2.42c0,1.58-3.85,2.9-8.64,3s-8.69-1.2-8.71-2.77l0-2.42a1.57,1.57,0,0,0,.82,1.2,8.93,8.93,0,0,0,3.2,1.17,24.51,24.51,0,0,0,9.35-.1,9,9,0,0,0,3.18-1.24A1.6,1.6,0,0,0,186.88,265.6Z" style="fill:#92E3A9"></path><path d="M186.88,265.6l0,2.42c0,1.58-3.85,2.9-8.64,3s-8.69-1.2-8.71-2.77l0-2.42a1.57,1.57,0,0,0,.82,1.2,8.93,8.93,0,0,0,3.2,1.17,24.51,24.51,0,0,0,9.35-.1,9,9,0,0,0,3.18-1.24A1.6,1.6,0,0,0,186.88,265.6Z" style="opacity:0.1"></path><path d="M186.88,265.6a1.61,1.61,0,0,1-.79,1.22,9,9,0,0,1-3.18,1.24,24.51,24.51,0,0,1-9.35.1,8.93,8.93,0,0,1-3.2-1.17,1.57,1.57,0,0,1-.82-1.2c0-1.58,3.85-2.91,8.64-3s8.48,1.13,8.69,2.65C186.87,265.52,186.88,265.56,186.88,265.6Z" style="fill:#92E3A9"></path><path d="M184.94,265.28a1.25,1.25,0,0,1-.62,1,7.06,7.06,0,0,1-2.46,1,17.79,17.79,0,0,1-3.63.39,17.49,17.49,0,0,1-3.63-.31,6.93,6.93,0,0,1-2.49-.91,1.21,1.21,0,0,1-.64-.93c0-1.23,3-2.26,6.71-2.3s6.59.88,6.75,2.06A.28.28,0,0,1,184.94,265.28Z" style="fill:#fff;opacity:0.30000000000000004"></path><path d="M198.72,269.46l0,2.41c0,1.58-3.85,2.91-8.63,3s-8.69-1.19-8.71-2.77l0-2.41a1.6,1.6,0,0,0,.82,1.2A9.06,9.06,0,0,0,185.4,272a24.51,24.51,0,0,0,9.35-.1,9,9,0,0,0,3.17-1.24A1.6,1.6,0,0,0,198.72,269.46Z" style="fill:#92E3A9"></path><path d="M198.72,269.46l0,2.41c0,1.58-3.85,2.91-8.63,3s-8.69-1.19-8.71-2.77l0-2.41a1.6,1.6,0,0,0,.82,1.2A9.06,9.06,0,0,0,185.4,272a24.51,24.51,0,0,0,9.35-.1,9,9,0,0,0,3.17-1.24A1.6,1.6,0,0,0,198.72,269.46Z" style="opacity:0.1"></path><path d="M198.72,269.46a1.57,1.57,0,0,1-.8,1.21,8.94,8.94,0,0,1-3.17,1.25,24.51,24.51,0,0,1-9.35.1,9.05,9.05,0,0,1-3.21-1.18,1.58,1.58,0,0,1-.82-1.19c0-1.58,3.86-2.91,8.65-3s8.48,1.13,8.69,2.64C198.71,269.38,198.72,269.42,198.72,269.46Z" style="fill:#92E3A9"></path><path d="M196.78,269.14a1.24,1.24,0,0,1-.62.94,6.92,6.92,0,0,1-2.47,1,17.68,17.68,0,0,1-3.62.39,18.24,18.24,0,0,1-3.64-.31,7.08,7.08,0,0,1-2.49-.91,1.22,1.22,0,0,1-.63-.93c0-1.23,3-2.26,6.71-2.3s6.59.87,6.75,2.05C196.77,269.08,196.78,269.11,196.78,269.14Z" style="fill:#fff;opacity:0.30000000000000004"></path><path d="M185.61,269.37l0,2.42c0,1.58-3.85,2.91-8.64,3s-8.69-1.19-8.7-2.77l0-2.42a1.6,1.6,0,0,0,.82,1.2,9,9,0,0,0,3.21,1.18,24.19,24.19,0,0,0,9.34-.11,9,9,0,0,0,3.18-1.24A1.57,1.57,0,0,0,185.61,269.37Z" style="fill:#92E3A9"></path><path d="M185.61,269.37l0,2.42c0,1.58-3.85,2.91-8.64,3s-8.69-1.19-8.7-2.77l0-2.42a1.6,1.6,0,0,0,.82,1.2,9,9,0,0,0,3.21,1.18,24.19,24.19,0,0,0,9.34-.11,9,9,0,0,0,3.18-1.24A1.57,1.57,0,0,0,185.61,269.37Z" style="opacity:0.1"></path><path d="M185.61,269.37a1.57,1.57,0,0,1-.79,1.22,9,9,0,0,1-3.18,1.24,22.33,22.33,0,0,1-4.66.5,22.94,22.94,0,0,1-4.68-.4,9,9,0,0,1-3.21-1.17,1.6,1.6,0,0,1-.82-1.2c0-1.58,3.85-2.91,8.64-3s8.49,1.13,8.69,2.65A.49.49,0,0,1,185.61,269.37Z" style="fill:#92E3A9"></path><path d="M183.67,269.05a1.2,1.2,0,0,1-.61.95,7,7,0,0,1-2.47,1,17.67,17.67,0,0,1-3.63.4,18.15,18.15,0,0,1-3.63-.32,6.89,6.89,0,0,1-2.49-.91,1.27,1.27,0,0,1-.64-.93c0-1.23,3-2.26,6.72-2.3s6.58.88,6.74,2.06A.28.28,0,0,1,183.67,269.05Z" style="fill:#fff;opacity:0.30000000000000004"></path><path d="M174.58,269.37l0,2.42c0,1.58-3.85,2.91-8.64,3s-8.69-1.19-8.71-2.77l0-2.42a1.57,1.57,0,0,0,.82,1.2,8.91,8.91,0,0,0,3.2,1.18,24.25,24.25,0,0,0,9.35-.11,9,9,0,0,0,3.18-1.24A1.6,1.6,0,0,0,174.58,269.37Z" style="fill:#92E3A9"></path><path d="M174.58,269.37l0,2.42c0,1.58-3.85,2.91-8.64,3s-8.69-1.19-8.71-2.77l0-2.42a1.57,1.57,0,0,0,.82,1.2,8.91,8.91,0,0,0,3.2,1.18,24.25,24.25,0,0,0,9.35-.11,9,9,0,0,0,3.18-1.24A1.6,1.6,0,0,0,174.58,269.37Z" style="opacity:0.1"></path><path d="M174.58,269.37a1.6,1.6,0,0,1-.79,1.22,9,9,0,0,1-3.18,1.24,22.36,22.36,0,0,1-4.67.5,22.94,22.94,0,0,1-4.68-.4,8.93,8.93,0,0,1-3.2-1.17,1.57,1.57,0,0,1-.82-1.2c0-1.58,3.85-2.91,8.64-3s8.48,1.13,8.69,2.65C174.57,269.29,174.58,269.33,174.58,269.37Z" style="fill:#92E3A9"></path><path d="M172.64,269.05a1.24,1.24,0,0,1-.62.95,6.87,6.87,0,0,1-2.46,1,17.75,17.75,0,0,1-3.63.4,18.15,18.15,0,0,1-3.63-.32,6.75,6.75,0,0,1-2.49-.91,1.21,1.21,0,0,1-.64-.93c0-1.23,3-2.26,6.71-2.3s6.59.88,6.75,2.06A.28.28,0,0,1,172.64,269.05Z" style="fill:#fff;opacity:0.30000000000000004"></path><path d="M202.45,267l0,2.42c0,1.58-3.85,2.9-8.64,3s-8.68-1.19-8.7-2.77l0-2.42a1.6,1.6,0,0,0,.82,1.2,9.06,9.06,0,0,0,3.21,1.17,22.94,22.94,0,0,0,4.68.4,22.43,22.43,0,0,0,4.67-.5,9,9,0,0,0,3.17-1.24A1.58,1.58,0,0,0,202.45,267Z" style="fill:#92E3A9"></path><path d="M202.45,267l0,2.42c0,1.58-3.85,2.9-8.64,3s-8.68-1.19-8.7-2.77l0-2.42a1.6,1.6,0,0,0,.82,1.2,9.06,9.06,0,0,0,3.21,1.17,22.94,22.94,0,0,0,4.68.4,22.43,22.43,0,0,0,4.67-.5,9,9,0,0,0,3.17-1.24A1.58,1.58,0,0,0,202.45,267Z" style="opacity:0.1"></path><path d="M202.45,267a1.6,1.6,0,0,1-.8,1.22,9,9,0,0,1-3.17,1.24,24.51,24.51,0,0,1-9.35.1,9.06,9.06,0,0,1-3.21-1.17,1.6,1.6,0,0,1-.82-1.2c0-1.58,3.85-2.91,8.65-3s8.48,1.13,8.69,2.65C202.44,266.94,202.45,267,202.45,267Z" style="fill:#92E3A9"></path><path d="M200.51,266.7a1.25,1.25,0,0,1-.62.95,6.93,6.93,0,0,1-2.47,1,19,19,0,0,1-7.26.08,7.08,7.08,0,0,1-2.49-.91,1.22,1.22,0,0,1-.63-.93c0-1.23,3-2.26,6.71-2.3s6.59.88,6.75,2.06C200.5,266.64,200.51,266.67,200.51,266.7Z" style="fill:#fff;opacity:0.30000000000000004"></path><path d="M212.45,264.11l0,2.42c0,1.58-3.85,2.9-8.64,3s-8.69-1.19-8.71-2.77l0-2.42a1.57,1.57,0,0,0,.82,1.2,8.93,8.93,0,0,0,3.2,1.17,23.7,23.7,0,0,0,4.68.41,23,23,0,0,0,4.67-.51,9,9,0,0,0,3.18-1.24A1.57,1.57,0,0,0,212.45,264.11Z" style="fill:#92E3A9"></path><path d="M212.45,264.11l0,2.42c0,1.58-3.85,2.9-8.64,3s-8.69-1.19-8.71-2.77l0-2.42a1.57,1.57,0,0,0,.82,1.2,8.93,8.93,0,0,0,3.2,1.17,23.7,23.7,0,0,0,4.68.41,23,23,0,0,0,4.67-.51,9,9,0,0,0,3.18-1.24A1.57,1.57,0,0,0,212.45,264.11Z" style="opacity:0.1"></path><path d="M212.45,264.11a1.57,1.57,0,0,1-.79,1.22,9,9,0,0,1-3.18,1.24,24.51,24.51,0,0,1-9.35.1,8.93,8.93,0,0,1-3.2-1.17,1.57,1.57,0,0,1-.82-1.2c0-1.58,3.85-2.91,8.64-3s8.48,1.13,8.69,2.65A.49.49,0,0,1,212.45,264.11Z" style="fill:#92E3A9"></path><path d="M210.51,263.79a1.24,1.24,0,0,1-.62.95,6.87,6.87,0,0,1-2.46,1,17.11,17.11,0,0,1-3.63.39,17.49,17.49,0,0,1-3.63-.31,6.82,6.82,0,0,1-2.49-.91,1.21,1.21,0,0,1-.64-.93c0-1.23,3-2.26,6.71-2.3s6.59.88,6.75,2.06A.28.28,0,0,1,210.51,263.79Z" style="fill:#fff;opacity:0.30000000000000004"></path><circle cx="212.45" cy="311.68" r="20.4" transform="translate(-158.17 241.51) rotate(-45)" style="fill:#fff;opacity:0.1"></circle><path d="M145.17,283.05c-4.41-1.58-10.45-3.38-14.64-.46-4.56,3.18-7.14,9.45-8.7,14.57-1.31,4.32-2.56,10.26,2.32,12.75,4,2,9.37,1.88,13.75,1.6,4.11-.27,4.14-6.71,0-6.44a32.18,32.18,0,0,1-9.4-.44c-.3-.07-1.73-.67-1.76-.67.52-.07.3,1.1.34-.32a20,20,0,0,1,1.14-5.33c1.08-3.37,2.82-8.28,5.89-10.4,2-1.4,6.88.47,9.35,1.35,3.9,1.41,5.58-4.81,1.71-6.21Z" style="fill:#37474f"></path><path d="M116.07,305.56c0,8-3.91,19.84-2,25.48a6.82,6.82,0,0,0,6.53,4.87s-4.06,5.2-1.48,10c1.32,2.48,6.46,2.55,6.46,2.55s-3.07,4.31-.52,8.46c2,3.31,6.88,2.88,6.88,2.88s-1,5.5,2.14,8.21c6.39,5.49,36.49-8.88,35.84-22.19-.3-6.2-7.46-2.29-7.46-2.29s8.94-8.11,6.14-14.39-11.81-.64-11.81-.64,8.6-7.94,5-14.16c-3.71-6.47-11.74.72-11.74.72s4.52-7.74.7-11.87c-6.3-6.83-14.16,9.3-21.52,10.89l-8.86-9.17Z" style="fill:#ffc4c0"></path><path d="M114.57,317.93c-.68-7.58-12.45-11.72-14.14-18.88-2.29-9.68,11.69-5.8,20,5.89l4.83,10.21Z" style="fill:#ffc4c0"></path><path d="M132.71,359.88a.09.09,0,0,0,0,.17c11.05-2.32,22.48-8.25,30.12-16.66.25-.28-.09-.8-.42-.55C152.93,350,143.9,355.6,132.71,359.88Z" style="fill:#263238"></path><path d="M125.46,348.62c-.12.05,0,.25.09.22,11.38-2.45,24.07-9.48,31.73-20.21.26-.37.13-1-.21-.56C151.44,334.82,135.55,344.82,125.46,348.62Z" style="fill:#263238"></path><path d="M150.39,314.13c-7.74,10-17.91,16.52-29.32,21.71-.15.06,0,.27.1.24,6.27-1,13.2-5.08,18.32-8.7a33.32,33.32,0,0,0,11.25-13C150.84,314.19,150.56,313.91,150.39,314.13Z" style="fill:#263238"></path><polygon points="225.87 295.9 222.09 296.6 221.25 300.58 220.41 296.6 216.63 295.9 220.39 294.98 221.25 291.22 222.11 294.98 225.87 295.9" style="fill:#fff"></polygon><polygon points="180.06 270.3 176.28 270.99 175.44 274.98 174.6 270.99 170.82 270.29 174.58 269.37 175.44 265.61 176.3 269.37 180.06 270.3" style="fill:#fff"></polygon><polygon points="163.24 258.28 161.13 258.67 160.66 260.9 160.19 258.67 158.07 258.28 160.18 257.77 160.66 255.66 161.14 257.77 163.24 258.28" style="fill:#fff"></polygon><polygon points="198.99 248.12 196.88 248.51 196.41 250.74 195.94 248.51 193.83 248.12 195.93 247.6 196.41 245.5 196.89 247.6 198.99 248.12" style="fill:#fff"></polygon><polygon points="202.95 309.93 200.84 310.32 200.37 312.55 199.89 310.32 197.78 309.93 199.88 309.42 200.37 307.32 200.85 309.42 202.95 309.93" style="fill:#fff"></polygon><polygon points="179.54 222.61 177.43 223 176.96 225.23 176.48 223 174.37 222.61 176.47 222.1 176.96 219.99 177.44 222.1 179.54 222.61" style="fill:#fff"></polygon><path d="M212.72,286.91a.61.61,0,0,0,0,1.22A.61.61,0,0,0,212.72,286.91Z" style="fill:#fff"></path><path d="M186.88,244.89a.61.61,0,0,0,0,1.22A.61.61,0,0,0,186.88,244.89Z" style="fill:#fff"></path><path d="M200.7,233a.62.62,0,0,0,0,1.23A.62.62,0,0,0,200.7,233Z" style="fill:#fff"></path><path d="M176.94,253.9a.44.44,0,0,0,0,.87A.44.44,0,0,0,176.94,253.9Z" style="fill:#fff"></path><path d="M203,258.15a.44.44,0,0,0,0,.87A.44.44,0,0,0,203,258.15Z" style="fill:#fff"></path><path d="M155.48,269.86a.44.44,0,0,0,0,.87A.44.44,0,0,0,155.48,269.86Z" style="fill:#fff"></path><path d="M212.45,264.11a1.18,1.18,0,0,0,0,2.35A1.18,1.18,0,0,0,212.45,264.11Z" style="fill:#fff"></path><path d="M166.88,276.46a1.18,1.18,0,0,0,0,2.35A1.18,1.18,0,0,0,166.88,276.46Z" style="fill:#fff"></path></g><g id="freepik--Coins--inject-215"><rect x="69.47" y="442.57" width="62.98" height="13.92" style="fill:#92E3A9"></rect><g style="opacity:0.1"><path d="M72.07,443.85a31.85,31.85,0,0,1,0,11.13,31.22,31.22,0,0,1,0-11.13Z"></path><path d="M76.76,443.85a31.85,31.85,0,0,1,0,11.13,31.22,31.22,0,0,1,0-11.13Z"></path><path d="M79.05,443.85a31.22,31.22,0,0,1,0,11.13,31.22,31.22,0,0,1,0-11.13Z"></path><path d="M91.62,443.85a31.22,31.22,0,0,1,0,11.13,31.22,31.22,0,0,1,0-11.13Z"></path><path d="M95,443.85A31.22,31.22,0,0,1,95,455a26.91,26.91,0,0,1-.5-5.57A27.52,27.52,0,0,1,95,443.85Z"></path><path d="M109.1,443.85a31.22,31.22,0,0,1,0,11.13,26.91,26.91,0,0,1-.5-5.57A27.52,27.52,0,0,1,109.1,443.85Z"></path><path d="M112.35,443.85a28.26,28.26,0,0,1,.5,5.56,27.61,27.61,0,0,1-.5,5.57,26.91,26.91,0,0,1-.5-5.57A27.52,27.52,0,0,1,112.35,443.85Z"></path><path d="M118.32,443.85a31.22,31.22,0,0,1,0,11.13,26.91,26.91,0,0,1-.5-5.57A27.52,27.52,0,0,1,118.32,443.85Z"></path><path d="M106.38,443.85a28.26,28.26,0,0,1,.5,5.56,26.91,26.91,0,0,1-.5,5.57,26.91,26.91,0,0,1-.5-5.57A28.26,28.26,0,0,1,106.38,443.85Z"></path><path d="M83.2,443.85a31.22,31.22,0,0,1,0,11.13,31.22,31.22,0,0,1,0-11.13Z"></path><path d="M99.5,443.85a31.22,31.22,0,0,1,0,11.13,31.22,31.22,0,0,1,0-11.13Z"></path><path d="M101.85,443.85a28.26,28.26,0,0,1,.5,5.56,27.61,27.61,0,0,1-.5,5.57,26.91,26.91,0,0,1-.5-5.57A28.26,28.26,0,0,1,101.85,443.85Z"></path><path d="M126.1,443.85a28.26,28.26,0,0,1,.5,5.56,27.61,27.61,0,0,1-.5,5.57,26.91,26.91,0,0,1-.5-5.57A28.26,28.26,0,0,1,126.1,443.85Z"></path><path d="M129.62,443.85a31.22,31.22,0,0,1,0,11.13,31.22,31.22,0,0,1,0-11.13Z"></path><path d="M121.09,443.85a28.26,28.26,0,0,1,.5,5.56,27.61,27.61,0,0,1-.5,5.57,26.91,26.91,0,0,1-.5-5.57A28.26,28.26,0,0,1,121.09,443.85Z"></path><path d="M88.91,443.85a31.22,31.22,0,0,1,0,11.13,31.22,31.22,0,0,1,0-11.13Z"></path></g><polygon points="132.44 442.57 132.44 445.53 69.47 447.51 69.47 442.57 132.44 442.57" style="opacity:0.1"></polygon><rect x="64.21" y="428.66" width="62.98" height="13.92" style="fill:#92E3A9"></rect><g style="opacity:0.1"><path d="M124.36,441.06a31.22,31.22,0,0,1,0-11.13,26.91,26.91,0,0,1,.5,5.57A27.52,27.52,0,0,1,124.36,441.06Z"></path><path d="M119.67,441.06a31.22,31.22,0,0,1,0-11.13,26.91,26.91,0,0,1,.5,5.57A27.52,27.52,0,0,1,119.67,441.06Z"></path><path d="M117.38,441.06a28.26,28.26,0,0,1-.5-5.56,26.91,26.91,0,0,1,.5-5.57,27.61,27.61,0,0,1,.5,5.57A28.26,28.26,0,0,1,117.38,441.06Z"></path><path d="M104.8,441.06a31.22,31.22,0,0,1,0-11.13,26.91,26.91,0,0,1,.5,5.57A27.52,27.52,0,0,1,104.8,441.06Z"></path><path d="M101.4,441.06a27.52,27.52,0,0,1-.5-5.56,26.91,26.91,0,0,1,.5-5.57,27.61,27.61,0,0,1,.5,5.57A28.26,28.26,0,0,1,101.4,441.06Z"></path><path d="M87.33,441.06a27.52,27.52,0,0,1-.5-5.56,26.91,26.91,0,0,1,.5-5.57,27.61,27.61,0,0,1,.5,5.57A28.26,28.26,0,0,1,87.33,441.06Z"></path><path d="M84.08,441.06a31.22,31.22,0,0,1,0-11.13,31.22,31.22,0,0,1,0,11.13Z"></path><path d="M78.11,441.06a27.52,27.52,0,0,1-.5-5.56,26.91,26.91,0,0,1,.5-5.57,31.22,31.22,0,0,1,0,11.13Z"></path><path d="M90.05,441.06a31.22,31.22,0,0,1,0-11.13,31.22,31.22,0,0,1,0,11.13Z"></path><path d="M113.22,441.06a31.22,31.22,0,0,1,0-11.13,31.22,31.22,0,0,1,0,11.13Z"></path><path d="M96.92,441.06a31.22,31.22,0,0,1,0-11.13,26.91,26.91,0,0,1,.5,5.57A27.52,27.52,0,0,1,96.92,441.06Z"></path><path d="M94.58,441.06a31.22,31.22,0,0,1,0-11.13,31.22,31.22,0,0,1,0,11.13Z"></path><path d="M70.33,441.06a31.22,31.22,0,0,1,0-11.13,31.22,31.22,0,0,1,0,11.13Z"></path><path d="M66.81,441.06a28.26,28.26,0,0,1-.5-5.56,26.91,26.91,0,0,1,.5-5.57,27.61,27.61,0,0,1,.5,5.57A28.26,28.26,0,0,1,66.81,441.06Z"></path><path d="M75.34,441.06a31.22,31.22,0,0,1,0-11.13,31.22,31.22,0,0,1,0,11.13Z"></path><path d="M107.52,441.06a28.26,28.26,0,0,1-.5-5.56,26.91,26.91,0,0,1,.5-5.57,26.91,26.91,0,0,1,.5,5.57A28.26,28.26,0,0,1,107.52,441.06Z"></path></g><polygon points="127.19 428.66 127.19 431.61 64.21 433.6 64.21 428.66 127.19 428.66" style="opacity:0.1"></polygon><rect x="69.07" y="414.85" width="62.98" height="13.92" style="fill:#92E3A9"></rect><g style="opacity:0.1"><path d="M71.66,416.13a27.55,27.55,0,0,1,.5,5.57,26.82,26.82,0,0,1-.5,5.56,31.22,31.22,0,0,1,0-11.13Z"></path><path d="M76.35,416.13a27.55,27.55,0,0,1,.5,5.57,26.82,26.82,0,0,1-.5,5.56,31.22,31.22,0,0,1,0-11.13Z"></path><path d="M78.64,416.13a31.22,31.22,0,0,1,0,11.13,31.22,31.22,0,0,1,0-11.13Z"></path><path d="M91.22,416.13a27.55,27.55,0,0,1,.5,5.57,26.82,26.82,0,0,1-.5,5.56,31.22,31.22,0,0,1,0-11.13Z"></path><path d="M94.62,416.13a31.22,31.22,0,0,1,0,11.13,31.22,31.22,0,0,1,0-11.13Z"></path><path d="M108.69,416.13a31.22,31.22,0,0,1,0,11.13,31.85,31.85,0,0,1,0-11.13Z"></path><path d="M112,416.13a31.22,31.22,0,0,1,0,11.13,31.22,31.22,0,0,1,0-11.13Z"></path><path d="M117.92,416.13a31.85,31.85,0,0,1,0,11.13,31.22,31.22,0,0,1,0-11.13Z"></path><path d="M106,416.13a31.22,31.22,0,0,1,0,11.13,31.22,31.22,0,0,1,0-11.13Z"></path><path d="M82.8,416.13a27.55,27.55,0,0,1,.5,5.57,26.82,26.82,0,0,1-.5,5.56,27.52,27.52,0,0,1-.5-5.56A28.29,28.29,0,0,1,82.8,416.13Z"></path><path d="M99.1,416.13a27.55,27.55,0,0,1,.5,5.57,26.82,26.82,0,0,1-.5,5.56,27.52,27.52,0,0,1-.5-5.56A28.29,28.29,0,0,1,99.1,416.13Z"></path><path d="M101.45,416.13a31.22,31.22,0,0,1,0,11.13,31.22,31.22,0,0,1,0-11.13Z"></path><path d="M125.7,416.13a31.22,31.22,0,0,1,0,11.13,31.22,31.22,0,0,1,0-11.13Z"></path><path d="M129.21,416.13a31.22,31.22,0,0,1,0,11.13,31.22,31.22,0,0,1,0-11.13Z"></path><path d="M120.69,416.13a31.22,31.22,0,0,1,0,11.13,31.22,31.22,0,0,1,0-11.13Z"></path><path d="M88.5,416.13a31.22,31.22,0,0,1,0,11.13,31.22,31.22,0,0,1,0-11.13Z"></path></g><polygon points="132.04 414.85 132.04 417.81 69.06 419.8 69.06 414.85 132.04 414.85" style="opacity:0.1"></polygon><rect x="367.39" y="441.54" width="62.98" height="13.92" style="fill:#92E3A9"></rect><g style="opacity:0.1"><path d="M370,442.81a27.68,27.68,0,0,1,.5,5.57A26.91,26.91,0,0,1,370,454a31.27,31.27,0,0,1,0-11.14Z"></path><path d="M374.67,442.81a27.68,27.68,0,0,1,.5,5.57,26.91,26.91,0,0,1-.5,5.57,31.27,31.27,0,0,1,0-11.14Z"></path><path d="M377,442.81A31.27,31.27,0,0,1,377,454a31.27,31.27,0,0,1,0-11.14Z"></path><path d="M389.54,442.81a27.68,27.68,0,0,1,.5,5.57,26.91,26.91,0,0,1-.5,5.57,27.61,27.61,0,0,1-.5-5.57A28.43,28.43,0,0,1,389.54,442.81Z"></path><path d="M392.94,442.81a31.27,31.27,0,0,1,0,11.14,31.27,31.27,0,0,1,0-11.14Z"></path><path d="M407,442.81A31.27,31.27,0,0,1,407,454a31.27,31.27,0,0,1,0-11.14Z"></path><path d="M410.27,442.81a31.27,31.27,0,0,1,0,11.14,31.27,31.27,0,0,1,0-11.14Z"></path><path d="M416.23,442.81a31.27,31.27,0,0,1,0,11.14,31.9,31.9,0,0,1,0-11.14Z"></path><path d="M404.3,442.81a31.27,31.27,0,0,1,0,11.14,31.27,31.27,0,0,1,0-11.14Z"></path><path d="M381.12,442.81a28.43,28.43,0,0,1,.5,5.57,26.91,26.91,0,0,1-.5,5.57,27.61,27.61,0,0,1-.5-5.57A28.43,28.43,0,0,1,381.12,442.81Z"></path><path d="M397.42,442.81a27.68,27.68,0,0,1,.5,5.57,26.91,26.91,0,0,1-.5,5.57,27.61,27.61,0,0,1-.5-5.57A28.43,28.43,0,0,1,397.42,442.81Z"></path><path d="M399.77,442.81a31.27,31.27,0,0,1,0,11.14,31.27,31.27,0,0,1,0-11.14Z"></path><path d="M424,442.81A31.27,31.27,0,0,1,424,454a31.27,31.27,0,0,1,0-11.14Z"></path><path d="M427.53,442.81a31.27,31.27,0,0,1,0,11.14,31.27,31.27,0,0,1,0-11.14Z"></path><path d="M419,442.81A31.27,31.27,0,0,1,419,454a31.27,31.27,0,0,1,0-11.14Z"></path><path d="M386.82,442.81a31.27,31.27,0,0,1,0,11.14,31.27,31.27,0,0,1,0-11.14Z"></path></g><polygon points="430.36 441.54 430.36 444.5 367.38 446.48 367.38 441.54 430.36 441.54" style="opacity:0.1"></polygon><rect x="363.08" y="427.62" width="62.98" height="13.92" style="fill:#92E3A9"></rect><g style="opacity:0.1"><path d="M365.67,428.9a31.22,31.22,0,0,1,0,11.13,31.22,31.22,0,0,1,0-11.13Z"></path><path d="M370.36,428.9a31.22,31.22,0,0,1,0,11.13,31.22,31.22,0,0,1,0-11.13Z"></path><path d="M372.66,428.9a31.22,31.22,0,0,1,0,11.13,31.22,31.22,0,0,1,0-11.13Z"></path><path d="M385.23,428.9a31.22,31.22,0,0,1,0,11.13,31.22,31.22,0,0,1,0-11.13Z"></path><path d="M388.64,428.9a31.22,31.22,0,0,1,0,11.13,31.22,31.22,0,0,1,0-11.13Z"></path><path d="M402.71,428.9a31.22,31.22,0,0,1,0,11.13,31.22,31.22,0,0,1,0-11.13Z"></path><path d="M406,428.9A31.22,31.22,0,0,1,406,440a26.82,26.82,0,0,1-.5-5.56A27.61,27.61,0,0,1,406,428.9Z"></path><path d="M411.93,428.9a31.22,31.22,0,0,1,0,11.13,31.22,31.22,0,0,1,0-11.13Z"></path><path d="M400,428.9a28.36,28.36,0,0,1,.5,5.57A27.52,27.52,0,0,1,400,440a26.82,26.82,0,0,1-.5-5.56A27.61,27.61,0,0,1,400,428.9Z"></path><path d="M376.81,428.9a31.22,31.22,0,0,1,0,11.13,31.22,31.22,0,0,1,0-11.13Z"></path><path d="M393.11,428.9a31.22,31.22,0,0,1,0,11.13,31.22,31.22,0,0,1,0-11.13Z"></path><path d="M395.46,428.9a28.36,28.36,0,0,1,.5,5.57,27.52,27.52,0,0,1-.5,5.56,26.82,26.82,0,0,1-.5-5.56A27.61,27.61,0,0,1,395.46,428.9Z"></path><path d="M419.71,428.9a28.36,28.36,0,0,1,.5,5.57,27.52,27.52,0,0,1-.5,5.56,26.82,26.82,0,0,1-.5-5.56A27.61,27.61,0,0,1,419.71,428.9Z"></path><path d="M423.23,428.9a31.22,31.22,0,0,1,0,11.13,31.22,31.22,0,0,1,0-11.13Z"></path><path d="M414.7,428.9a28.36,28.36,0,0,1,.5,5.57,27.52,27.52,0,0,1-.5,5.56,26.82,26.82,0,0,1-.5-5.56A27.61,27.61,0,0,1,414.7,428.9Z"></path><path d="M382.52,428.9a31.22,31.22,0,0,1,0,11.13,31.22,31.22,0,0,1,0-11.13Z"></path></g><polygon points="426.05 427.63 426.05 430.58 363.08 432.57 363.08 427.63 426.05 427.63" style="opacity:0.1"></polygon><rect x="372.81" y="399.91" width="62.98" height="13.92" style="fill:#92E3A9"></rect><g style="opacity:0.1"><path d="M375.4,401.18a31.27,31.27,0,0,1,0,11.14,31.27,31.27,0,0,1,0-11.14Z"></path><path d="M380.09,401.18a31.27,31.27,0,0,1,0,11.14,31.27,31.27,0,0,1,0-11.14Z"></path><path d="M382.39,401.18a31.27,31.27,0,0,1,0,11.14,31.27,31.27,0,0,1,0-11.14Z"></path><path d="M395,401.18a31.27,31.27,0,0,1,0,11.14,31.27,31.27,0,0,1,0-11.14Z"></path><path d="M398.37,401.18a31.27,31.27,0,0,1,0,11.14,31.27,31.27,0,0,1,0-11.14Z"></path><path d="M412.44,401.18a31.27,31.27,0,0,1,0,11.14,31.27,31.27,0,0,1,0-11.14Z"></path><path d="M415.69,401.18a31.27,31.27,0,0,1,0,11.14,27,27,0,0,1-.5-5.57A27.61,27.61,0,0,1,415.69,401.18Z"></path><path d="M421.66,401.18a31.27,31.27,0,0,1,0,11.14,31.27,31.27,0,0,1,0-11.14Z"></path><path d="M409.72,401.18a28.36,28.36,0,0,1,.5,5.57,27.68,27.68,0,0,1-.5,5.57,27,27,0,0,1-.5-5.57A27.61,27.61,0,0,1,409.72,401.18Z"></path><path d="M386.54,401.18a31.27,31.27,0,0,1,0,11.14,31.27,31.27,0,0,1,0-11.14Z"></path><path d="M402.84,401.18a31.27,31.27,0,0,1,0,11.14,31.27,31.27,0,0,1,0-11.14Z"></path><path d="M405.19,401.18a31.27,31.27,0,0,1,0,11.14,27,27,0,0,1-.5-5.57A27.61,27.61,0,0,1,405.19,401.18Z"></path><path d="M429.44,401.18a31.27,31.27,0,0,1,0,11.14,27,27,0,0,1-.5-5.57A27.61,27.61,0,0,1,429.44,401.18Z"></path><path d="M433,401.18a31.27,31.27,0,0,1,0,11.14,31.27,31.27,0,0,1,0-11.14Z"></path><path d="M424.43,401.18a31.27,31.27,0,0,1,0,11.14,27,27,0,0,1-.5-5.57A27.61,27.61,0,0,1,424.43,401.18Z"></path><path d="M392.25,401.18a31.27,31.27,0,0,1,0,11.14,31.27,31.27,0,0,1,0-11.14Z"></path></g><polygon points="435.78 399.91 435.78 402.86 372.81 404.85 372.81 399.91 435.78 399.91" style="opacity:0.1"></polygon><rect x="371.22" y="385.99" width="62.98" height="13.92" style="fill:#92E3A9"></rect><g style="opacity:0.1"><path d="M431.37,398.4a31.27,31.27,0,0,1,0-11.14,31.27,31.27,0,0,1,0,11.14Z"></path><path d="M426.68,398.4a31.27,31.27,0,0,1,0-11.14,31.27,31.27,0,0,1,0,11.14Z"></path><path d="M424.38,398.4a31.27,31.27,0,0,1,0-11.14,31.27,31.27,0,0,1,0,11.14Z"></path><path d="M411.81,398.4a31.27,31.27,0,0,1,0-11.14,31.27,31.27,0,0,1,0,11.14Z"></path><path d="M408.4,398.4a31.27,31.27,0,0,1,0-11.14,31.27,31.27,0,0,1,0,11.14Z"></path><path d="M394.33,398.4a31.27,31.27,0,0,1,0-11.14,31.27,31.27,0,0,1,0,11.14Z"></path><path d="M391.08,398.4a31.27,31.27,0,0,1,0-11.14,27,27,0,0,1,.5,5.57A27.61,27.61,0,0,1,391.08,398.4Z"></path><path d="M385.11,398.4a31.27,31.27,0,0,1,0-11.14,31.27,31.27,0,0,1,0,11.14Z"></path><path d="M397.05,398.4a28.36,28.36,0,0,1-.5-5.57,27.68,27.68,0,0,1,.5-5.57,27,27,0,0,1,.5,5.57A27.61,27.61,0,0,1,397.05,398.4Z"></path><path d="M420.23,398.4a31.27,31.27,0,0,1,0-11.14,31.27,31.27,0,0,1,0,11.14Z"></path><path d="M403.93,398.4a31.27,31.27,0,0,1,0-11.14,31.27,31.27,0,0,1,0,11.14Z"></path><path d="M401.58,398.4a28.36,28.36,0,0,1-.5-5.57,27.68,27.68,0,0,1,.5-5.57,27,27,0,0,1,.5,5.57A27.61,27.61,0,0,1,401.58,398.4Z"></path><path d="M377.33,398.4a31.27,31.27,0,0,1,0-11.14,27,27,0,0,1,.5,5.57A27.61,27.61,0,0,1,377.33,398.4Z"></path><path d="M373.81,398.4a31.27,31.27,0,0,1,0-11.14,31.27,31.27,0,0,1,0,11.14Z"></path><path d="M382.34,398.4a28.36,28.36,0,0,1-.5-5.57,27.68,27.68,0,0,1,.5-5.57,27,27,0,0,1,.5,5.57A27.61,27.61,0,0,1,382.34,398.4Z"></path><path d="M414.52,398.4a31.27,31.27,0,0,1,0-11.14,31.27,31.27,0,0,1,0,11.14Z"></path></g><polygon points="434.19 385.99 434.19 388.95 371.22 390.93 371.22 385.99 434.19 385.99" style="opacity:0.1"></polygon><rect x="367.39" y="372.07" width="62.98" height="13.92" style="fill:#92E3A9"></rect><g style="opacity:0.1"><path d="M370,373.35a31.22,31.22,0,0,1,0,11.13,31.22,31.22,0,0,1,0-11.13Z"></path><path d="M374.67,373.35a31.22,31.22,0,0,1,0,11.13,31.22,31.22,0,0,1,0-11.13Z"></path><path d="M377,373.35a31.22,31.22,0,0,1,0,11.13,31.22,31.22,0,0,1,0-11.13Z"></path><path d="M389.54,373.35a31.22,31.22,0,0,1,0,11.13,31.22,31.22,0,0,1,0-11.13Z"></path><path d="M393,373.35a31.22,31.22,0,0,1,0,11.13,31.22,31.22,0,0,1,0-11.13Z"></path><path d="M407,373.35a31.22,31.22,0,0,1,0,11.13,31.22,31.22,0,0,1,0-11.13Z"></path><path d="M410.27,373.35a31.22,31.22,0,0,1,0,11.13,31.22,31.22,0,0,1,0-11.13Z"></path><path d="M416.24,373.35a31.22,31.22,0,0,1,0,11.13,31.22,31.22,0,0,1,0-11.13Z"></path><path d="M404.3,373.35a31.22,31.22,0,0,1,0,11.13,31.22,31.22,0,0,1,0-11.13Z"></path><path d="M381.12,373.35a27.55,27.55,0,0,1,.5,5.57,26.82,26.82,0,0,1-.5,5.56,31.22,31.22,0,0,1,0-11.13Z"></path><path d="M397.42,373.35a31.22,31.22,0,0,1,0,11.13,31.22,31.22,0,0,1,0-11.13Z"></path><path d="M399.77,373.35a31.22,31.22,0,0,1,0,11.13,31.22,31.22,0,0,1,0-11.13Z"></path><path d="M424,373.35a31.22,31.22,0,0,1,0,11.13,31.22,31.22,0,0,1,0-11.13Z"></path><path d="M427.53,373.35a31.22,31.22,0,0,1,0,11.13,31.85,31.85,0,0,1,0-11.13Z"></path><path d="M419,373.35a31.22,31.22,0,0,1,0,11.13,31.22,31.22,0,0,1,0-11.13Z"></path><path d="M386.82,373.35a31.22,31.22,0,0,1,0,11.13,31.22,31.22,0,0,1,0-11.13Z"></path></g><polygon points="430.36 372.07 430.36 375.03 367.39 377.02 367.39 372.07 430.36 372.07" style="opacity:0.1"></polygon><rect x="367.39" y="413.82" width="62.98" height="13.92" style="fill:#92E3A9"></rect><g style="opacity:0.1"><path d="M427.53,426.23a31.22,31.22,0,0,1,0-11.13,31.22,31.22,0,0,1,0,11.13Z"></path><path d="M422.84,426.23a31.22,31.22,0,0,1,0-11.13,31.22,31.22,0,0,1,0,11.13Z"></path><path d="M420.55,426.23a31.22,31.22,0,0,1,0-11.13,31.22,31.22,0,0,1,0,11.13Z"></path><path d="M408,426.23a31.22,31.22,0,0,1,0-11.13,31.22,31.22,0,0,1,0,11.13Z"></path><path d="M404.57,426.23a31.22,31.22,0,0,1,0-11.13,26.82,26.82,0,0,1,.5,5.56A27.55,27.55,0,0,1,404.57,426.23Z"></path><path d="M390.5,426.23a28.29,28.29,0,0,1-.5-5.57,27.52,27.52,0,0,1,.5-5.56,26.82,26.82,0,0,1,.5,5.56A27.55,27.55,0,0,1,390.5,426.23Z"></path><path d="M387.25,426.23a28.29,28.29,0,0,1-.5-5.57,27.52,27.52,0,0,1,.5-5.56,26.82,26.82,0,0,1,.5,5.56A28.29,28.29,0,0,1,387.25,426.23Z"></path><path d="M381.28,426.23a28.29,28.29,0,0,1-.5-5.57,27.52,27.52,0,0,1,.5-5.56,26.82,26.82,0,0,1,.5,5.56A27.55,27.55,0,0,1,381.28,426.23Z"></path><path d="M393.22,426.23a28.29,28.29,0,0,1-.5-5.57,26.82,26.82,0,0,1,.5-5.56,27.52,27.52,0,0,1,.5,5.56A28.29,28.29,0,0,1,393.22,426.23Z"></path><path d="M416.4,426.23a31.22,31.22,0,0,1,0-11.13,31.22,31.22,0,0,1,0,11.13Z"></path><path d="M400.09,426.23a31.22,31.22,0,0,1,0-11.13,31.22,31.22,0,0,1,0,11.13Z"></path><path d="M397.75,426.23a28.29,28.29,0,0,1-.5-5.57,26.82,26.82,0,0,1,.5-5.56,27.52,27.52,0,0,1,.5,5.56A28.29,28.29,0,0,1,397.75,426.23Z"></path><path d="M373.5,426.23a28.29,28.29,0,0,1-.5-5.57,26.82,26.82,0,0,1,.5-5.56,27.52,27.52,0,0,1,.5,5.56A28.29,28.29,0,0,1,373.5,426.23Z"></path><path d="M370,426.23a31.22,31.22,0,0,1,0-11.13,31.22,31.22,0,0,1,0,11.13Z"></path><path d="M378.51,426.23a28.29,28.29,0,0,1-.5-5.57,26.82,26.82,0,0,1,.5-5.56,27.52,27.52,0,0,1,.5,5.56A28.29,28.29,0,0,1,378.51,426.23Z"></path><path d="M410.69,426.23a31.22,31.22,0,0,1,0-11.13,31.22,31.22,0,0,1,0,11.13Z"></path></g><polygon points="430.36 413.82 430.36 416.78 367.38 418.77 367.38 413.82 430.36 413.82" style="opacity:0.1"></polygon><path d="M380.06,399.2c41.46,7.44,30.51,68.85-11,61.4S338.54,391.75,380.06,399.2Z" style="fill:#92E3A9"></path><path d="M380.06,399.2c41.46,7.44,30.51,68.85-11,61.4S338.54,391.75,380.06,399.2Z" style="opacity:0.1"></path><path d="M376.17,398.5c39.51,7.09,28.55,68.5-11,61.4S336.59,391.4,376.17,398.5Z" style="fill:#92E3A9"></path><path d="M345.6,430.64c.21,10.95,6.58,21.55,20.49,24,32.84,5.89,41.93-45.08,9.15-51-.22,0-.43-.08-.65-.1,30.75,6.15,21.93,54.39-9.38,48.77C352.44,450.1,346.28,440.65,345.6,430.64Z" style="opacity:0.1"></path><g style="opacity:0.1"><path d="M374.07,410.09a1,1,0,0,1,.76,1.26l-.42,1.69a14.16,14.16,0,0,1,6.77,4.82,1.19,1.19,0,0,1,.34,1.11,1.1,1.1,0,0,1-1.35.78,1.05,1.05,0,0,1-.69-.48,12.36,12.36,0,0,0-5.64-4.32l-2.94,11.8c6.07,2.95,8.17,6,7.14,10.15-1.12,4.47-5.66,6.69-11,5.55l-.82,3.28a1,1,0,0,1-1.26.76,1.06,1.06,0,0,1-.76-1.26l.83-3.33a16.34,16.34,0,0,1-8.46-6.45,1.12,1.12,0,0,1-.24-1,1.13,1.13,0,0,1,1.32-.79,1.1,1.1,0,0,1,.68.48,14,14,0,0,0,7.26,5.88l3-12c-6-3-8-5.94-7-10.15s5.58-6.58,10.75-5.42l.4-1.6A1,1,0,0,1,374.07,410.09Zm-4.92,15.78L372,414.36c-4.11-.93-7.41.84-8.17,3.87C363.14,421.1,364,423.21,369.15,425.87Zm1.21,3-2.9,11.63c4.24,1,7.59-.79,8.39-4C376.57,433.63,375.54,431.49,370.36,428.9Z"></path></g></g><g id="freepik--speech-bubble--inject-215"><path d="M412.25,107.28a37.45,37.45,0,0,1-59.79,30.08l-18.36,4.69L341.74,125a37.47,37.47,0,1,1,70.51-17.68Z" style="fill:#fff"></path><path d="M412.25,107.28A37.81,37.81,0,0,1,406.68,127a33.6,33.6,0,0,1-6.56,8,24.34,24.34,0,0,1-1.95,1.71l-2.07,1.56c-.69.52-1.46.92-2.18,1.39l-1.11.68c-.37.21-.77.39-1.16.58-.77.38-1.55.77-2.33,1.13l-2.43.91a19.65,19.65,0,0,1-2.48.75c-.85.2-1.67.49-2.53.62a37.13,37.13,0,0,1-5.15.62,32.24,32.24,0,0,1-5.2,0,37.57,37.57,0,0,1-19.29-7.2l.3.06-18.33,4.76-.88.23.37-.83,7.6-17.11,0,.43a37.05,37.05,0,0,1-4.46-16.49,37.79,37.79,0,0,1,13.56-30.35,38,38,0,0,1,32.15-7.89,38.14,38.14,0,0,1,15.28,7.25A37.69,37.69,0,0,1,412.25,107.28Zm0,0a37.18,37.18,0,0,0-46.51-36,36.92,36.92,0,0,0-14.84,7.68,38.47,38.47,0,0,0-10,13.38,37.09,37.09,0,0,0,1.23,32.43l.11.21-.1.21-7.68,17.08-.51-.61,18.38-4.6.16,0,.14.1a36.88,36.88,0,0,0,18.9,7.3,33.93,33.93,0,0,0,5.14.07,38.21,38.21,0,0,0,5.11-.56c.85-.12,1.67-.39,2.5-.58a18.47,18.47,0,0,0,2.47-.72l2.43-.87c.78-.35,1.55-.73,2.33-1.1.38-.19.78-.36,1.16-.56l1.1-.67c.73-.45,1.5-.85,2.19-1.36l2.08-1.53c.71-.49,1.29-1.13,1.95-1.69a33.44,33.44,0,0,0,6.57-7.91A37.73,37.73,0,0,0,412.25,107.28Z" style="fill:#263238"></path><path d="M375.31,90.08s-2.05-7-7.08-6.47-4.79,7.33-2.46,11.9,9.54,11.77,9.54,11.77Z" style="fill:#92E3A9"></path><path d="M375.31,90.08s2.05-7,7.07-6.47,4.79,7.33,2.47,11.9-9.54,11.77-9.54,11.77Z" style="fill:#92E3A9"></path><path d="M392.51,107.28s7-2,6.47-7.07-7.33-4.79-11.9-2.47-11.77,9.54-11.77,9.54Z" style="fill:#92E3A9"></path><path d="M392.51,107.28s7,2,6.47,7.08-7.33,4.79-11.9,2.46-11.77-9.54-11.77-9.54Z" style="fill:#92E3A9"></path><path d="M375.31,124.48s2.05,7,7.07,6.47,4.79-7.33,2.47-11.89-9.54-11.78-9.54-11.78Z" style="fill:#92E3A9"></path><path d="M375.31,124.48s-2.05,7-7.08,6.47-4.79-7.33-2.46-11.89,9.54-11.78,9.54-11.78Z" style="fill:#92E3A9"></path><path d="M358.11,107.28s-7,2-6.47,7.08,7.33,4.79,11.89,2.46,11.78-9.54,11.78-9.54Z" style="fill:#92E3A9"></path><path d="M358.11,107.28s-7-2-6.47-7.07,7.33-4.79,11.89-2.47,11.78,9.54,11.78,9.54Z" style="fill:#92E3A9"></path></g></svg>